G04 #@! TF.FileFunction,Soldermask,Top*
%FSLAX46Y46*%
G04 Gerber Fmt 4.6, Leading zero omitted, Abs format (unit mm)*
G04 Created by KiCad (PCBNEW 4.0.4-stable) date 01/28/17 21:45:27*
%MOMM*%
%LPD*%
G01*
G04 APERTURE LIST*
%ADD10C,0.100000*%
%ADD11R,1.900000X1.900000*%
%ADD12C,1.900000*%
%ADD13R,1.600000X1.600000*%
%ADD14O,1.600000X1.600000*%
%ADD15R,2.500000X2.100000*%
%ADD16R,1.500000X2.100000*%
%ADD17R,0.650000X1.060000*%
%ADD18R,1.500000X1.300000*%
%ADD19R,1.250000X1.500000*%
%ADD20R,1.300000X1.500000*%
%ADD21R,1.200000X1.200000*%
%ADD22C,1.200000*%
%ADD23R,1.000000X1.000000*%
%ADD24R,1.700000X0.650000*%
%ADD25R,1.500000X1.250000*%
%ADD26C,1.100000*%
%ADD27C,1.520000*%
%ADD28C,2.700000*%
%ADD29R,1.700000X1.700000*%
%ADD30O,1.700000X1.700000*%
%ADD31R,3.200000X1.100000*%
G04 APERTURE END LIST*
D10*
D11*
X162427920Y-146248120D03*
D12*
X162427920Y-143748120D03*
X162427920Y-141248120D03*
X162427920Y-138748120D03*
X162427920Y-136248120D03*
X162427920Y-133748120D03*
D13*
X155956000Y-133731000D03*
D14*
X148336000Y-141351000D03*
X153416000Y-133731000D03*
X150876000Y-141351000D03*
X150876000Y-133731000D03*
X153416000Y-141351000D03*
X148336000Y-133731000D03*
X155956000Y-141351000D03*
D15*
X125690320Y-136900920D03*
D16*
X128350320Y-136900920D03*
D15*
X125639520Y-141879320D03*
D16*
X128299520Y-141879320D03*
D17*
X145608000Y-117051000D03*
X146558000Y-117051000D03*
X147508000Y-117051000D03*
X147508000Y-114851000D03*
X145608000Y-114851000D03*
D18*
X155274000Y-125349000D03*
X152574000Y-125349000D03*
X155274000Y-129667000D03*
X152574000Y-129667000D03*
X143590000Y-130683000D03*
X140890000Y-130683000D03*
X140542000Y-125857000D03*
X137842000Y-125857000D03*
D19*
X150114000Y-122996640D03*
X150114000Y-125496640D03*
X140716000Y-132989000D03*
X140716000Y-135489000D03*
X135382000Y-125877000D03*
X135382000Y-128377000D03*
X128270000Y-114193000D03*
X128270000Y-116693000D03*
D20*
X123261120Y-130503920D03*
X123261120Y-127803920D03*
D18*
X145081000Y-122966480D03*
X147781000Y-122966480D03*
X147781000Y-126151640D03*
X145081000Y-126151640D03*
X130382000Y-127127000D03*
X127682000Y-127127000D03*
X130382000Y-129921000D03*
X127682000Y-129921000D03*
D21*
X141930120Y-116174520D03*
D22*
X141930120Y-117674520D03*
D23*
X147808000Y-120523000D03*
X145308000Y-120523000D03*
D20*
X123698000Y-113839000D03*
X123698000Y-116539000D03*
D24*
X123604000Y-119380000D03*
X123604000Y-120650000D03*
X123604000Y-121920000D03*
X123604000Y-123190000D03*
X130904000Y-123190000D03*
X130904000Y-121920000D03*
X130904000Y-120650000D03*
X130904000Y-119380000D03*
D25*
X143236000Y-138049000D03*
X140736000Y-138049000D03*
D20*
X143764000Y-132889000D03*
X143764000Y-135589000D03*
D26*
X131826000Y-133985000D03*
X136826000Y-138985000D03*
X136826000Y-133985000D03*
X131826000Y-138985000D03*
D27*
X119578120Y-125039120D03*
X119578120Y-127579120D03*
X117578120Y-127579120D03*
X117578120Y-125039120D03*
D28*
X114878120Y-120309120D03*
X114878120Y-132309120D03*
D29*
X137459720Y-122600720D03*
D30*
X134919720Y-122600720D03*
X137459720Y-120060720D03*
X134919720Y-120060720D03*
X137459720Y-117520720D03*
X134919720Y-117520720D03*
D31*
X142057120Y-122507720D03*
X142057120Y-120407720D03*
M02*
