M48
;DRILL file {KiCad 4.0.4-stable} date 01/28/17 21:43:06
;FORMAT={-:-/ absolute / metric / decimal}
FMAT,2
METRIC,TZ
T1C0.400
T2C0.600
T3C0.762
T4C0.800
T5C0.810
T6C1.000
T7C1.200
T8C2.300
%
G90
G05
M71
T1
X121.534Y-123.287
X122.271Y-114.574
X122.271Y-122.271
X122.652Y-127.528
X122.936Y-121.031
X124.938Y-116.429
X126.492Y-130.175
X129.032Y-116.967
X129.84Y-123.541
X132.08Y-125.349
X135.128Y-125.603
X136.144Y-130.937
X140.025Y-124.785
X146.558Y-118.344
X152.908Y-126.619
X160.167Y-135.758
T2
X141.93Y-116.175
X141.93Y-117.675
T3
X131.826Y-133.985
X131.826Y-138.985
X136.826Y-133.985
X136.826Y-138.985
T4
X148.336Y-133.731
X148.336Y-141.351
X150.876Y-133.731
X150.876Y-141.351
X153.416Y-133.731
X153.416Y-141.351
X155.956Y-133.731
X155.956Y-141.351
T5
X117.578Y-125.039
X117.578Y-127.579
X119.578Y-125.039
X119.578Y-127.579
T6
X134.92Y-117.521
X134.92Y-120.061
X134.92Y-122.601
X137.46Y-117.521
X137.46Y-120.061
X137.46Y-122.601
T7
X162.428Y-133.748
X162.428Y-136.248
X162.428Y-138.748
X162.428Y-141.248
X162.428Y-143.748
X162.428Y-146.248
T8
X114.878Y-120.309
X114.878Y-132.309
T0
M30
