G04 #@! TF.FileFunction,Legend,Top*
%FSLAX46Y46*%
G04 Gerber Fmt 4.6, Leading zero omitted, Abs format (unit mm)*
G04 Created by KiCad (PCBNEW 4.0.4-stable) date 01/28/17 21:45:27*
%MOMM*%
%LPD*%
G01*
G04 APERTURE LIST*
%ADD10C,0.100000*%
%ADD11C,0.300000*%
%ADD12C,0.187500*%
%ADD13C,0.150000*%
%ADD14C,0.120000*%
G04 APERTURE END LIST*
D10*
D11*
X129207693Y-149420663D02*
X129421979Y-149492091D01*
X129779122Y-149492091D01*
X129921979Y-149420663D01*
X129993408Y-149349234D01*
X130064836Y-149206377D01*
X130064836Y-149063520D01*
X129993408Y-148920663D01*
X129921979Y-148849234D01*
X129779122Y-148777806D01*
X129493408Y-148706377D01*
X129350550Y-148634949D01*
X129279122Y-148563520D01*
X129207693Y-148420663D01*
X129207693Y-148277806D01*
X129279122Y-148134949D01*
X129350550Y-148063520D01*
X129493408Y-147992091D01*
X129850550Y-147992091D01*
X130064836Y-148063520D01*
X131279121Y-149420663D02*
X131136264Y-149492091D01*
X130850550Y-149492091D01*
X130707693Y-149420663D01*
X130636264Y-149277806D01*
X130636264Y-148706377D01*
X130707693Y-148563520D01*
X130850550Y-148492091D01*
X131136264Y-148492091D01*
X131279121Y-148563520D01*
X131350550Y-148706377D01*
X131350550Y-148849234D01*
X130636264Y-148992091D01*
X131993407Y-148492091D02*
X131993407Y-149492091D01*
X131993407Y-148634949D02*
X132064835Y-148563520D01*
X132207693Y-148492091D01*
X132421978Y-148492091D01*
X132564835Y-148563520D01*
X132636264Y-148706377D01*
X132636264Y-149492091D01*
X133279121Y-149420663D02*
X133421978Y-149492091D01*
X133707693Y-149492091D01*
X133850550Y-149420663D01*
X133921978Y-149277806D01*
X133921978Y-149206377D01*
X133850550Y-149063520D01*
X133707693Y-148992091D01*
X133493407Y-148992091D01*
X133350550Y-148920663D01*
X133279121Y-148777806D01*
X133279121Y-148706377D01*
X133350550Y-148563520D01*
X133493407Y-148492091D01*
X133707693Y-148492091D01*
X133850550Y-148563520D01*
X134779122Y-149492091D02*
X134636264Y-149420663D01*
X134564836Y-149349234D01*
X134493407Y-149206377D01*
X134493407Y-148777806D01*
X134564836Y-148634949D01*
X134636264Y-148563520D01*
X134779122Y-148492091D01*
X134993407Y-148492091D01*
X135136264Y-148563520D01*
X135207693Y-148634949D01*
X135279122Y-148777806D01*
X135279122Y-149206377D01*
X135207693Y-149349234D01*
X135136264Y-149420663D01*
X134993407Y-149492091D01*
X134779122Y-149492091D01*
X135921979Y-149492091D02*
X135921979Y-148492091D01*
X135921979Y-148777806D02*
X135993407Y-148634949D01*
X136064836Y-148563520D01*
X136207693Y-148492091D01*
X136350550Y-148492091D01*
X136779121Y-148134949D02*
X136850550Y-148063520D01*
X136993407Y-147992091D01*
X137350550Y-147992091D01*
X137493407Y-148063520D01*
X137564836Y-148134949D01*
X137636264Y-148277806D01*
X137636264Y-148420663D01*
X137564836Y-148634949D01*
X136707693Y-149492091D01*
X137636264Y-149492091D01*
X138279121Y-147992091D02*
X138279121Y-149206377D01*
X138350549Y-149349234D01*
X138421978Y-149420663D01*
X138564835Y-149492091D01*
X138850549Y-149492091D01*
X138993407Y-149420663D01*
X139064835Y-149349234D01*
X139136264Y-149206377D01*
X139136264Y-147992091D01*
X139779121Y-149420663D02*
X139993407Y-149492091D01*
X140350550Y-149492091D01*
X140493407Y-149420663D01*
X140564836Y-149349234D01*
X140636264Y-149206377D01*
X140636264Y-149063520D01*
X140564836Y-148920663D01*
X140493407Y-148849234D01*
X140350550Y-148777806D01*
X140064836Y-148706377D01*
X139921978Y-148634949D01*
X139850550Y-148563520D01*
X139779121Y-148420663D01*
X139779121Y-148277806D01*
X139850550Y-148134949D01*
X139921978Y-148063520D01*
X140064836Y-147992091D01*
X140421978Y-147992091D01*
X140636264Y-148063520D01*
X141779121Y-148706377D02*
X141993407Y-148777806D01*
X142064835Y-148849234D01*
X142136264Y-148992091D01*
X142136264Y-149206377D01*
X142064835Y-149349234D01*
X141993407Y-149420663D01*
X141850549Y-149492091D01*
X141279121Y-149492091D01*
X141279121Y-147992091D01*
X141779121Y-147992091D01*
X141921978Y-148063520D01*
X141993407Y-148134949D01*
X142064835Y-148277806D01*
X142064835Y-148420663D01*
X141993407Y-148563520D01*
X141921978Y-148634949D01*
X141779121Y-148706377D01*
X141279121Y-148706377D01*
X143921978Y-149492091D02*
X143921978Y-148492091D01*
X143921978Y-148777806D02*
X143993406Y-148634949D01*
X144064835Y-148563520D01*
X144207692Y-148492091D01*
X144350549Y-148492091D01*
X145421977Y-149420663D02*
X145279120Y-149492091D01*
X144993406Y-149492091D01*
X144850549Y-149420663D01*
X144779120Y-149277806D01*
X144779120Y-148706377D01*
X144850549Y-148563520D01*
X144993406Y-148492091D01*
X145279120Y-148492091D01*
X145421977Y-148563520D01*
X145493406Y-148706377D01*
X145493406Y-148849234D01*
X144779120Y-148992091D01*
X145993406Y-148492091D02*
X146350549Y-149492091D01*
X146707691Y-148492091D01*
X149207691Y-149492091D02*
X148350548Y-149492091D01*
X148779120Y-149492091D02*
X148779120Y-147992091D01*
X148636263Y-148206377D01*
X148493405Y-148349234D01*
X148350548Y-148420663D01*
X149850548Y-149349234D02*
X149921976Y-149420663D01*
X149850548Y-149492091D01*
X149779119Y-149420663D01*
X149850548Y-149349234D01*
X149850548Y-149492091D01*
X150850548Y-147992091D02*
X150993405Y-147992091D01*
X151136262Y-148063520D01*
X151207691Y-148134949D01*
X151279120Y-148277806D01*
X151350548Y-148563520D01*
X151350548Y-148920663D01*
X151279120Y-149206377D01*
X151207691Y-149349234D01*
X151136262Y-149420663D01*
X150993405Y-149492091D01*
X150850548Y-149492091D01*
X150707691Y-149420663D01*
X150636262Y-149349234D01*
X150564834Y-149206377D01*
X150493405Y-148920663D01*
X150493405Y-148563520D01*
X150564834Y-148277806D01*
X150636262Y-148134949D01*
X150707691Y-148063520D01*
X150850548Y-147992091D01*
D12*
X159294634Y-140651491D02*
X160044634Y-140651491D01*
X159973206Y-140972920D02*
X160008920Y-141008634D01*
X160044634Y-141080063D01*
X160044634Y-141258634D01*
X160008920Y-141330063D01*
X159973206Y-141365777D01*
X159901777Y-141401492D01*
X159830349Y-141401492D01*
X159723206Y-141365777D01*
X159294634Y-140937206D01*
X159294634Y-141401492D01*
X159580349Y-141722920D02*
X159580349Y-142294349D01*
X159294634Y-142008635D02*
X159866063Y-142008635D01*
D11*
X131385549Y-141470463D02*
X131599835Y-141541891D01*
X131956978Y-141541891D01*
X132099835Y-141470463D01*
X132171264Y-141399034D01*
X132242692Y-141256177D01*
X132242692Y-141113320D01*
X132171264Y-140970463D01*
X132099835Y-140899034D01*
X131956978Y-140827606D01*
X131671264Y-140756177D01*
X131528406Y-140684749D01*
X131456978Y-140613320D01*
X131385549Y-140470463D01*
X131385549Y-140327606D01*
X131456978Y-140184749D01*
X131528406Y-140113320D01*
X131671264Y-140041891D01*
X132028406Y-140041891D01*
X132242692Y-140113320D01*
X133456977Y-141470463D02*
X133314120Y-141541891D01*
X133028406Y-141541891D01*
X132885549Y-141470463D01*
X132814120Y-141327606D01*
X132814120Y-140756177D01*
X132885549Y-140613320D01*
X133028406Y-140541891D01*
X133314120Y-140541891D01*
X133456977Y-140613320D01*
X133528406Y-140756177D01*
X133528406Y-140899034D01*
X132814120Y-141041891D01*
X133956977Y-140541891D02*
X134528406Y-140541891D01*
X134171263Y-140041891D02*
X134171263Y-141327606D01*
X134242691Y-141470463D01*
X134385549Y-141541891D01*
X134528406Y-141541891D01*
X136171263Y-141541891D02*
X136171263Y-140041891D01*
X136885549Y-141541891D02*
X136885549Y-140041891D01*
X137242692Y-140041891D01*
X137456977Y-140113320D01*
X137599835Y-140256177D01*
X137671263Y-140399034D01*
X137742692Y-140684749D01*
X137742692Y-140899034D01*
X137671263Y-141184749D01*
X137599835Y-141327606D01*
X137456977Y-141470463D01*
X137242692Y-141541891D01*
X136885549Y-141541891D01*
D12*
X159856520Y-145752892D02*
X159892234Y-145681463D01*
X159892234Y-145574320D01*
X159856520Y-145467177D01*
X159785091Y-145395749D01*
X159713663Y-145360034D01*
X159570806Y-145324320D01*
X159463663Y-145324320D01*
X159320806Y-145360034D01*
X159249377Y-145395749D01*
X159177949Y-145467177D01*
X159142234Y-145574320D01*
X159142234Y-145645749D01*
X159177949Y-145752892D01*
X159213663Y-145788606D01*
X159463663Y-145788606D01*
X159463663Y-145645749D01*
X159142234Y-146110034D02*
X159892234Y-146110034D01*
X159142234Y-146538606D01*
X159892234Y-146538606D01*
X159142234Y-146895748D02*
X159892234Y-146895748D01*
X159892234Y-147074320D01*
X159856520Y-147181463D01*
X159785091Y-147252891D01*
X159713663Y-147288606D01*
X159570806Y-147324320D01*
X159463663Y-147324320D01*
X159320806Y-147288606D01*
X159249377Y-147252891D01*
X159177949Y-147181463D01*
X159142234Y-147074320D01*
X159142234Y-146895748D01*
X159820806Y-132731463D02*
X159856520Y-132767177D01*
X159892234Y-132838606D01*
X159892234Y-133017177D01*
X159856520Y-133088606D01*
X159820806Y-133124320D01*
X159749377Y-133160035D01*
X159677949Y-133160035D01*
X159570806Y-133124320D01*
X159142234Y-132695749D01*
X159142234Y-133160035D01*
X159642234Y-133802892D02*
X159142234Y-133802892D01*
X159927949Y-133624321D02*
X159392234Y-133445749D01*
X159392234Y-133910035D01*
X159892234Y-134088607D02*
X159142234Y-134338607D01*
X159892234Y-134588607D01*
X159193034Y-138086091D02*
X159943034Y-138086091D01*
X159193034Y-138836092D02*
X159193034Y-138407520D01*
X159193034Y-138621806D02*
X159943034Y-138621806D01*
X159835891Y-138550377D01*
X159764463Y-138478949D01*
X159728749Y-138407520D01*
X159478749Y-139157520D02*
X159478749Y-139728949D01*
X159142234Y-135647691D02*
X159892234Y-135647691D01*
X159142234Y-136397692D02*
X159142234Y-135969120D01*
X159142234Y-136183406D02*
X159892234Y-136183406D01*
X159785091Y-136111977D01*
X159713663Y-136040549D01*
X159677949Y-135969120D01*
X159427949Y-136719120D02*
X159427949Y-137290549D01*
X159142234Y-137004835D02*
X159713663Y-137004835D01*
X159320034Y-143115291D02*
X160070034Y-143115291D01*
X159998606Y-143436720D02*
X160034320Y-143472434D01*
X160070034Y-143543863D01*
X160070034Y-143722434D01*
X160034320Y-143793863D01*
X159998606Y-143829577D01*
X159927177Y-143865292D01*
X159855749Y-143865292D01*
X159748606Y-143829577D01*
X159320034Y-143401006D01*
X159320034Y-143865292D01*
X159605749Y-144186720D02*
X159605749Y-144758149D01*
D13*
X160587920Y-139998120D02*
X160587920Y-148068120D01*
X160587920Y-148068120D02*
X164267920Y-148068120D01*
X164267920Y-148068120D02*
X164267920Y-142698120D01*
X164267920Y-142698120D02*
X167127920Y-142698120D01*
X167127920Y-142698120D02*
X167127920Y-139998120D01*
X160587920Y-139998120D02*
X160587920Y-131928120D01*
X160587920Y-131928120D02*
X164267920Y-131928120D01*
X164267920Y-131928120D02*
X164267920Y-137298120D01*
X164267920Y-137298120D02*
X167127920Y-137298120D01*
X167127920Y-137298120D02*
X167127920Y-139998120D01*
X164867920Y-142098120D02*
X166527920Y-142098120D01*
X166527920Y-142098120D02*
X166527920Y-137898120D01*
X166527920Y-137898120D02*
X164867920Y-137898120D01*
X164867920Y-137898120D02*
X164867920Y-142098120D01*
X162427920Y-148468120D02*
X162727920Y-149068120D01*
X162727920Y-149068120D02*
X162127920Y-149068120D01*
X162127920Y-149068120D02*
X162427920Y-148468120D01*
D14*
X157346000Y-138541000D02*
G75*
G02X157346000Y-136541000I0J1000000D01*
G01*
X157346000Y-136541000D02*
X157346000Y-134771000D01*
X157346000Y-134771000D02*
X146946000Y-134771000D01*
X146946000Y-134771000D02*
X146946000Y-140311000D01*
X146946000Y-140311000D02*
X157346000Y-140311000D01*
X157346000Y-140311000D02*
X157346000Y-138541000D01*
X128470320Y-135300920D02*
X124470320Y-135300920D01*
X128520320Y-138500920D02*
X124520320Y-138500920D01*
X128419520Y-140279320D02*
X124419520Y-140279320D01*
X128469520Y-143479320D02*
X124469520Y-143479320D01*
X148168000Y-116851000D02*
X148168000Y-115051000D01*
X144948000Y-115051000D02*
X144948000Y-117501000D01*
D13*
X153324000Y-124474000D02*
X154524000Y-124474000D01*
X154524000Y-126224000D02*
X153324000Y-126224000D01*
X153324000Y-128792000D02*
X154524000Y-128792000D01*
X154524000Y-130542000D02*
X153324000Y-130542000D01*
X141640000Y-129808000D02*
X142840000Y-129808000D01*
X142840000Y-131558000D02*
X141640000Y-131558000D01*
X138592000Y-124982000D02*
X139792000Y-124982000D01*
X139792000Y-126732000D02*
X138592000Y-126732000D01*
D14*
X150964000Y-124746640D02*
X150964000Y-123746640D01*
X149264000Y-123746640D02*
X149264000Y-124746640D01*
X141566000Y-134739000D02*
X141566000Y-133739000D01*
X139866000Y-133739000D02*
X139866000Y-134739000D01*
X136232000Y-127627000D02*
X136232000Y-126627000D01*
X134532000Y-126627000D02*
X134532000Y-127627000D01*
X129120000Y-115943000D02*
X129120000Y-114943000D01*
X127420000Y-114943000D02*
X127420000Y-115943000D01*
D13*
X124136120Y-128553920D02*
X124136120Y-129753920D01*
X122386120Y-129753920D02*
X122386120Y-128553920D01*
X147031000Y-123841480D02*
X145831000Y-123841480D01*
X145831000Y-122091480D02*
X147031000Y-122091480D01*
X145831000Y-125276640D02*
X147031000Y-125276640D01*
X147031000Y-127026640D02*
X145831000Y-127026640D01*
X128432000Y-126252000D02*
X129632000Y-126252000D01*
X129632000Y-128002000D02*
X128432000Y-128002000D01*
X128432000Y-129046000D02*
X129632000Y-129046000D01*
X129632000Y-130796000D02*
X128432000Y-130796000D01*
D14*
X142709209Y-118863881D02*
G75*
G03X142710120Y-114985525I-779089J1939361D01*
G01*
X141151031Y-118863881D02*
G75*
G02X141150120Y-114985525I779089J1939361D01*
G01*
X141151031Y-118863881D02*
G75*
G03X142710120Y-118863515I779089J1939361D01*
G01*
X141150120Y-116924520D02*
X139880120Y-116924520D01*
X143980120Y-116924520D02*
X142710120Y-116924520D01*
X143980120Y-116964520D02*
X142710120Y-116964520D01*
X141150120Y-116964520D02*
X139880120Y-116964520D01*
X143979120Y-117004520D02*
X142710120Y-117004520D01*
X141150120Y-117004520D02*
X139881120Y-117004520D01*
X143977120Y-117044520D02*
X142710120Y-117044520D01*
X141150120Y-117044520D02*
X139883120Y-117044520D01*
X143974120Y-117084520D02*
X142710120Y-117084520D01*
X141150120Y-117084520D02*
X139886120Y-117084520D01*
X143971120Y-117124520D02*
X142710120Y-117124520D01*
X141150120Y-117124520D02*
X139889120Y-117124520D01*
X143967120Y-117164520D02*
X142710120Y-117164520D01*
X141150120Y-117164520D02*
X139893120Y-117164520D01*
X143962120Y-117204520D02*
X142710120Y-117204520D01*
X141150120Y-117204520D02*
X139898120Y-117204520D01*
X143956120Y-117244520D02*
X142710120Y-117244520D01*
X141150120Y-117244520D02*
X139904120Y-117244520D01*
X143949120Y-117284520D02*
X142710120Y-117284520D01*
X141150120Y-117284520D02*
X139911120Y-117284520D01*
X143942120Y-117324520D02*
X142710120Y-117324520D01*
X141150120Y-117324520D02*
X139918120Y-117324520D01*
X143934120Y-117364520D02*
X142710120Y-117364520D01*
X141150120Y-117364520D02*
X139926120Y-117364520D01*
X143925120Y-117404520D02*
X142710120Y-117404520D01*
X141150120Y-117404520D02*
X139935120Y-117404520D01*
X143915120Y-117444520D02*
X142710120Y-117444520D01*
X141150120Y-117444520D02*
X139945120Y-117444520D01*
X143904120Y-117484520D02*
X142710120Y-117484520D01*
X141150120Y-117484520D02*
X139956120Y-117484520D01*
X143893120Y-117524520D02*
X142710120Y-117524520D01*
X141150120Y-117524520D02*
X139967120Y-117524520D01*
X143880120Y-117564520D02*
X142710120Y-117564520D01*
X141150120Y-117564520D02*
X139980120Y-117564520D01*
X143867120Y-117604520D02*
X142710120Y-117604520D01*
X141150120Y-117604520D02*
X139993120Y-117604520D01*
X143853120Y-117645520D02*
X142710120Y-117645520D01*
X141150120Y-117645520D02*
X140007120Y-117645520D01*
X143837120Y-117685520D02*
X142710120Y-117685520D01*
X141150120Y-117685520D02*
X140023120Y-117685520D01*
X143821120Y-117725520D02*
X142710120Y-117725520D01*
X141150120Y-117725520D02*
X140039120Y-117725520D01*
X143804120Y-117765520D02*
X142710120Y-117765520D01*
X141150120Y-117765520D02*
X140056120Y-117765520D01*
X143786120Y-117805520D02*
X142710120Y-117805520D01*
X141150120Y-117805520D02*
X140074120Y-117805520D01*
X143767120Y-117845520D02*
X142710120Y-117845520D01*
X141150120Y-117845520D02*
X140093120Y-117845520D01*
X143747120Y-117885520D02*
X142710120Y-117885520D01*
X141150120Y-117885520D02*
X140113120Y-117885520D01*
X143726120Y-117925520D02*
X142710120Y-117925520D01*
X141150120Y-117925520D02*
X140134120Y-117925520D01*
X143703120Y-117965520D02*
X142710120Y-117965520D01*
X141150120Y-117965520D02*
X140157120Y-117965520D01*
X143680120Y-118005520D02*
X142710120Y-118005520D01*
X141150120Y-118005520D02*
X140180120Y-118005520D01*
X143655120Y-118045520D02*
X142710120Y-118045520D01*
X141150120Y-118045520D02*
X140205120Y-118045520D01*
X143629120Y-118085520D02*
X142710120Y-118085520D01*
X141150120Y-118085520D02*
X140231120Y-118085520D01*
X143602120Y-118125520D02*
X142710120Y-118125520D01*
X141150120Y-118125520D02*
X140258120Y-118125520D01*
X143573120Y-118165520D02*
X142710120Y-118165520D01*
X141150120Y-118165520D02*
X140287120Y-118165520D01*
X143543120Y-118205520D02*
X142710120Y-118205520D01*
X141150120Y-118205520D02*
X140317120Y-118205520D01*
X143511120Y-118245520D02*
X142710120Y-118245520D01*
X141150120Y-118245520D02*
X140349120Y-118245520D01*
X143477120Y-118285520D02*
X142710120Y-118285520D01*
X141150120Y-118285520D02*
X140383120Y-118285520D01*
X143442120Y-118325520D02*
X142710120Y-118325520D01*
X141150120Y-118325520D02*
X140418120Y-118325520D01*
X143405120Y-118365520D02*
X142710120Y-118365520D01*
X141150120Y-118365520D02*
X140455120Y-118365520D01*
X143366120Y-118405520D02*
X142710120Y-118405520D01*
X141150120Y-118405520D02*
X140494120Y-118405520D01*
X143325120Y-118445520D02*
X142710120Y-118445520D01*
X141150120Y-118445520D02*
X140535120Y-118445520D01*
X143281120Y-118485520D02*
X140579120Y-118485520D01*
X143235120Y-118525520D02*
X140625120Y-118525520D01*
X143186120Y-118565520D02*
X140674120Y-118565520D01*
X143134120Y-118605520D02*
X140726120Y-118605520D01*
X143078120Y-118645520D02*
X140782120Y-118645520D01*
X143018120Y-118685520D02*
X140842120Y-118685520D01*
X142953120Y-118725520D02*
X140907120Y-118725520D01*
X142882120Y-118765520D02*
X140978120Y-118765520D01*
X142804120Y-118805520D02*
X141056120Y-118805520D01*
X142716120Y-118845520D02*
X141144120Y-118845520D01*
X142616120Y-118885520D02*
X141244120Y-118885520D01*
X142497120Y-118925520D02*
X141363120Y-118925520D01*
X142345120Y-118965520D02*
X141515120Y-118965520D01*
X142095120Y-119005520D02*
X141765120Y-119005520D01*
X141930120Y-114474520D02*
X141930120Y-115374520D01*
X142380120Y-114924520D02*
X141480120Y-114924520D01*
X148458000Y-121373000D02*
X148458000Y-119673000D01*
X148458000Y-119673000D02*
X145308000Y-119673000D01*
X148458000Y-121373000D02*
X145308000Y-121373000D01*
D13*
X122823000Y-115789000D02*
X122823000Y-114589000D01*
X124573000Y-114589000D02*
X124573000Y-115789000D01*
X124504000Y-118530000D02*
X124504000Y-118735000D01*
X130004000Y-118530000D02*
X130004000Y-118830000D01*
X130004000Y-124040000D02*
X130004000Y-123740000D01*
X124504000Y-124040000D02*
X124504000Y-123740000D01*
X124504000Y-118530000D02*
X130004000Y-118530000D01*
X124504000Y-124040000D02*
X130004000Y-124040000D01*
X124504000Y-118735000D02*
X122754000Y-118735000D01*
D14*
X141486000Y-138899000D02*
X142486000Y-138899000D01*
X142486000Y-137199000D02*
X141486000Y-137199000D01*
D13*
X142889000Y-134839000D02*
X142889000Y-133639000D01*
X144639000Y-133639000D02*
X144639000Y-134839000D01*
D14*
X113228120Y-120209120D02*
X104588120Y-120209120D01*
X121608120Y-120209120D02*
X116528120Y-120209120D01*
X113228120Y-132409120D02*
X104588120Y-132409120D01*
X121608120Y-132409120D02*
X116528120Y-132409120D01*
X104588120Y-132409120D02*
X104588120Y-120209120D01*
X121608120Y-120209120D02*
X121608120Y-132409120D01*
X138849720Y-121330720D02*
X138849720Y-116130720D01*
X138849720Y-116130720D02*
X133529720Y-116130720D01*
X133529720Y-116130720D02*
X133529720Y-123990720D01*
X133529720Y-123990720D02*
X136189720Y-123990720D01*
X136189720Y-123990720D02*
X136189720Y-121330720D01*
X136189720Y-121330720D02*
X138849720Y-121330720D01*
X138849720Y-122600720D02*
X138849720Y-123990720D01*
X138849720Y-123990720D02*
X137459720Y-123990720D01*
D13*
X143454120Y-122918220D02*
X143454120Y-119997220D01*
X143454120Y-119997220D02*
X140660120Y-119997220D01*
X140660120Y-119997220D02*
X140660120Y-122918220D01*
X140660120Y-122918220D02*
X143454120Y-122918220D01*
X165195025Y-136337301D02*
X165195025Y-135337301D01*
X165575978Y-135337301D01*
X165671216Y-135384920D01*
X165718835Y-135432539D01*
X165766454Y-135527777D01*
X165766454Y-135670634D01*
X165718835Y-135765872D01*
X165671216Y-135813491D01*
X165575978Y-135861110D01*
X165195025Y-135861110D01*
X166718835Y-136337301D02*
X166147406Y-136337301D01*
X166433120Y-136337301D02*
X166433120Y-135337301D01*
X166337882Y-135480158D01*
X166242644Y-135575396D01*
X166147406Y-135623015D01*
X157798381Y-138302905D02*
X158607905Y-138302905D01*
X158703143Y-138255286D01*
X158750762Y-138207667D01*
X158798381Y-138112429D01*
X158798381Y-137921952D01*
X158750762Y-137826714D01*
X158703143Y-137779095D01*
X158607905Y-137731476D01*
X157798381Y-137731476D01*
X157893619Y-137302905D02*
X157846000Y-137255286D01*
X157798381Y-137160048D01*
X157798381Y-136921952D01*
X157846000Y-136826714D01*
X157893619Y-136779095D01*
X157988857Y-136731476D01*
X158084095Y-136731476D01*
X158226952Y-136779095D01*
X158798381Y-137350524D01*
X158798381Y-136731476D01*
X123830341Y-137552655D02*
X122830341Y-137552655D01*
X122830341Y-137314560D01*
X122877960Y-137171702D01*
X122973198Y-137076464D01*
X123068436Y-137028845D01*
X123258912Y-136981226D01*
X123401770Y-136981226D01*
X123592246Y-137028845D01*
X123687484Y-137076464D01*
X123782722Y-137171702D01*
X123830341Y-137314560D01*
X123830341Y-137552655D01*
X123830341Y-136028845D02*
X123830341Y-136600274D01*
X123830341Y-136314560D02*
X122830341Y-136314560D01*
X122973198Y-136409798D01*
X123068436Y-136505036D01*
X123116055Y-136600274D01*
X123718581Y-142617415D02*
X122718581Y-142617415D01*
X122718581Y-142379320D01*
X122766200Y-142236462D01*
X122861438Y-142141224D01*
X122956676Y-142093605D01*
X123147152Y-142045986D01*
X123290010Y-142045986D01*
X123480486Y-142093605D01*
X123575724Y-142141224D01*
X123670962Y-142236462D01*
X123718581Y-142379320D01*
X123718581Y-142617415D01*
X122813819Y-141665034D02*
X122766200Y-141617415D01*
X122718581Y-141522177D01*
X122718581Y-141284081D01*
X122766200Y-141188843D01*
X122813819Y-141141224D01*
X122909057Y-141093605D01*
X123004295Y-141093605D01*
X123147152Y-141141224D01*
X123718581Y-141712653D01*
X123718581Y-141093605D01*
X148712015Y-115398301D02*
X148712015Y-116207825D01*
X148759634Y-116303063D01*
X148807253Y-116350682D01*
X148902491Y-116398301D01*
X149092968Y-116398301D01*
X149188206Y-116350682D01*
X149235825Y-116303063D01*
X149283444Y-116207825D01*
X149283444Y-115398301D01*
X150283444Y-116398301D02*
X149712015Y-116398301D01*
X149997729Y-116398301D02*
X149997729Y-115398301D01*
X149902491Y-115541158D01*
X149807253Y-115636396D01*
X149712015Y-115684015D01*
X153757334Y-127901381D02*
X153424000Y-127425190D01*
X153185905Y-127901381D02*
X153185905Y-126901381D01*
X153566858Y-126901381D01*
X153662096Y-126949000D01*
X153709715Y-126996619D01*
X153757334Y-127091857D01*
X153757334Y-127234714D01*
X153709715Y-127329952D01*
X153662096Y-127377571D01*
X153566858Y-127425190D01*
X153185905Y-127425190D01*
X154614477Y-127234714D02*
X154614477Y-127901381D01*
X154376381Y-126853762D02*
X154138286Y-127568048D01*
X154757334Y-127568048D01*
X153757334Y-132219381D02*
X153424000Y-131743190D01*
X153185905Y-132219381D02*
X153185905Y-131219381D01*
X153566858Y-131219381D01*
X153662096Y-131267000D01*
X153709715Y-131314619D01*
X153757334Y-131409857D01*
X153757334Y-131552714D01*
X153709715Y-131647952D01*
X153662096Y-131695571D01*
X153566858Y-131743190D01*
X153185905Y-131743190D01*
X154090667Y-131219381D02*
X154757334Y-131219381D01*
X154328762Y-132219381D01*
X145446454Y-131130301D02*
X145113120Y-130654110D01*
X144875025Y-131130301D02*
X144875025Y-130130301D01*
X145255978Y-130130301D01*
X145351216Y-130177920D01*
X145398835Y-130225539D01*
X145446454Y-130320777D01*
X145446454Y-130463634D01*
X145398835Y-130558872D01*
X145351216Y-130606491D01*
X145255978Y-130654110D01*
X144875025Y-130654110D01*
X146017882Y-130558872D02*
X145922644Y-130511253D01*
X145875025Y-130463634D01*
X145827406Y-130368396D01*
X145827406Y-130320777D01*
X145875025Y-130225539D01*
X145922644Y-130177920D01*
X146017882Y-130130301D01*
X146208359Y-130130301D01*
X146303597Y-130177920D01*
X146351216Y-130225539D01*
X146398835Y-130320777D01*
X146398835Y-130368396D01*
X146351216Y-130463634D01*
X146303597Y-130511253D01*
X146208359Y-130558872D01*
X146017882Y-130558872D01*
X145922644Y-130606491D01*
X145875025Y-130654110D01*
X145827406Y-130749349D01*
X145827406Y-130939825D01*
X145875025Y-131035063D01*
X145922644Y-131082682D01*
X146017882Y-131130301D01*
X146208359Y-131130301D01*
X146303597Y-131082682D01*
X146351216Y-131035063D01*
X146398835Y-130939825D01*
X146398835Y-130749349D01*
X146351216Y-130654110D01*
X146303597Y-130606491D01*
X146208359Y-130558872D01*
X139020254Y-128082301D02*
X138686920Y-127606110D01*
X138448825Y-128082301D02*
X138448825Y-127082301D01*
X138829778Y-127082301D01*
X138925016Y-127129920D01*
X138972635Y-127177539D01*
X139020254Y-127272777D01*
X139020254Y-127415634D01*
X138972635Y-127510872D01*
X138925016Y-127558491D01*
X138829778Y-127606110D01*
X138448825Y-127606110D01*
X139496444Y-128082301D02*
X139686920Y-128082301D01*
X139782159Y-128034682D01*
X139829778Y-127987063D01*
X139925016Y-127844206D01*
X139972635Y-127653730D01*
X139972635Y-127272777D01*
X139925016Y-127177539D01*
X139877397Y-127129920D01*
X139782159Y-127082301D01*
X139591682Y-127082301D01*
X139496444Y-127129920D01*
X139448825Y-127177539D01*
X139401206Y-127272777D01*
X139401206Y-127510872D01*
X139448825Y-127606110D01*
X139496444Y-127653730D01*
X139591682Y-127701349D01*
X139782159Y-127701349D01*
X139877397Y-127653730D01*
X139925016Y-127606110D01*
X139972635Y-127510872D01*
X150069254Y-127656863D02*
X150021635Y-127704482D01*
X149878778Y-127752101D01*
X149783540Y-127752101D01*
X149640682Y-127704482D01*
X149545444Y-127609244D01*
X149497825Y-127514006D01*
X149450206Y-127323530D01*
X149450206Y-127180672D01*
X149497825Y-126990196D01*
X149545444Y-126894958D01*
X149640682Y-126799720D01*
X149783540Y-126752101D01*
X149878778Y-126752101D01*
X150021635Y-126799720D01*
X150069254Y-126847339D01*
X151021635Y-127752101D02*
X150450206Y-127752101D01*
X150735920Y-127752101D02*
X150735920Y-126752101D01*
X150640682Y-126894958D01*
X150545444Y-126990196D01*
X150450206Y-127037815D01*
X138664654Y-134438663D02*
X138617035Y-134486282D01*
X138474178Y-134533901D01*
X138378940Y-134533901D01*
X138236082Y-134486282D01*
X138140844Y-134391044D01*
X138093225Y-134295806D01*
X138045606Y-134105330D01*
X138045606Y-133962472D01*
X138093225Y-133771996D01*
X138140844Y-133676758D01*
X138236082Y-133581520D01*
X138378940Y-133533901D01*
X138474178Y-133533901D01*
X138617035Y-133581520D01*
X138664654Y-133629139D01*
X139045606Y-133629139D02*
X139093225Y-133581520D01*
X139188463Y-133533901D01*
X139426559Y-133533901D01*
X139521797Y-133581520D01*
X139569416Y-133629139D01*
X139617035Y-133724377D01*
X139617035Y-133819615D01*
X139569416Y-133962472D01*
X138997987Y-134533901D01*
X139617035Y-134533901D01*
X134143454Y-130628663D02*
X134095835Y-130676282D01*
X133952978Y-130723901D01*
X133857740Y-130723901D01*
X133714882Y-130676282D01*
X133619644Y-130581044D01*
X133572025Y-130485806D01*
X133524406Y-130295330D01*
X133524406Y-130152472D01*
X133572025Y-129961996D01*
X133619644Y-129866758D01*
X133714882Y-129771520D01*
X133857740Y-129723901D01*
X133952978Y-129723901D01*
X134095835Y-129771520D01*
X134143454Y-129819139D01*
X135000597Y-130057234D02*
X135000597Y-130723901D01*
X134762501Y-129676282D02*
X134524406Y-130390568D01*
X135143454Y-130390568D01*
X130155654Y-116861863D02*
X130108035Y-116909482D01*
X129965178Y-116957101D01*
X129869940Y-116957101D01*
X129727082Y-116909482D01*
X129631844Y-116814244D01*
X129584225Y-116719006D01*
X129536606Y-116528530D01*
X129536606Y-116385672D01*
X129584225Y-116195196D01*
X129631844Y-116099958D01*
X129727082Y-116004720D01*
X129869940Y-115957101D01*
X129965178Y-115957101D01*
X130108035Y-116004720D01*
X130155654Y-116052339D01*
X131060416Y-115957101D02*
X130584225Y-115957101D01*
X130536606Y-116433291D01*
X130584225Y-116385672D01*
X130679463Y-116338053D01*
X130917559Y-116338053D01*
X131012797Y-116385672D01*
X131060416Y-116433291D01*
X131108035Y-116528530D01*
X131108035Y-116766625D01*
X131060416Y-116861863D01*
X131012797Y-116909482D01*
X130917559Y-116957101D01*
X130679463Y-116957101D01*
X130584225Y-116909482D01*
X130536606Y-116861863D01*
X121613501Y-129320586D02*
X121137310Y-129653920D01*
X121613501Y-129892015D02*
X120613501Y-129892015D01*
X120613501Y-129511062D01*
X120661120Y-129415824D01*
X120708739Y-129368205D01*
X120803977Y-129320586D01*
X120946834Y-129320586D01*
X121042072Y-129368205D01*
X121089691Y-129415824D01*
X121137310Y-129511062D01*
X121137310Y-129892015D01*
X121613501Y-128368205D02*
X121613501Y-128939634D01*
X121613501Y-128653920D02*
X120613501Y-128653920D01*
X120756358Y-128749158D01*
X120851596Y-128844396D01*
X120899215Y-128939634D01*
X146335454Y-125059701D02*
X146002120Y-124583510D01*
X145764025Y-125059701D02*
X145764025Y-124059701D01*
X146144978Y-124059701D01*
X146240216Y-124107320D01*
X146287835Y-124154939D01*
X146335454Y-124250177D01*
X146335454Y-124393034D01*
X146287835Y-124488272D01*
X146240216Y-124535891D01*
X146144978Y-124583510D01*
X145764025Y-124583510D01*
X146716406Y-124154939D02*
X146764025Y-124107320D01*
X146859263Y-124059701D01*
X147097359Y-124059701D01*
X147192597Y-124107320D01*
X147240216Y-124154939D01*
X147287835Y-124250177D01*
X147287835Y-124345415D01*
X147240216Y-124488272D01*
X146668787Y-125059701D01*
X147287835Y-125059701D01*
X146284654Y-128514101D02*
X145951320Y-128037910D01*
X145713225Y-128514101D02*
X145713225Y-127514101D01*
X146094178Y-127514101D01*
X146189416Y-127561720D01*
X146237035Y-127609339D01*
X146284654Y-127704577D01*
X146284654Y-127847434D01*
X146237035Y-127942672D01*
X146189416Y-127990291D01*
X146094178Y-128037910D01*
X145713225Y-128037910D01*
X146617987Y-127514101D02*
X147237035Y-127514101D01*
X146903701Y-127895053D01*
X147046559Y-127895053D01*
X147141797Y-127942672D01*
X147189416Y-127990291D01*
X147237035Y-128085530D01*
X147237035Y-128323625D01*
X147189416Y-128418863D01*
X147141797Y-128466482D01*
X147046559Y-128514101D01*
X146760844Y-128514101D01*
X146665606Y-128466482D01*
X146617987Y-128418863D01*
X132299414Y-127736861D02*
X131966080Y-127260670D01*
X131727985Y-127736861D02*
X131727985Y-126736861D01*
X132108938Y-126736861D01*
X132204176Y-126784480D01*
X132251795Y-126832099D01*
X132299414Y-126927337D01*
X132299414Y-127070194D01*
X132251795Y-127165432D01*
X132204176Y-127213051D01*
X132108938Y-127260670D01*
X131727985Y-127260670D01*
X133204176Y-126736861D02*
X132727985Y-126736861D01*
X132680366Y-127213051D01*
X132727985Y-127165432D01*
X132823223Y-127117813D01*
X133061319Y-127117813D01*
X133156557Y-127165432D01*
X133204176Y-127213051D01*
X133251795Y-127308290D01*
X133251795Y-127546385D01*
X133204176Y-127641623D01*
X133156557Y-127689242D01*
X133061319Y-127736861D01*
X132823223Y-127736861D01*
X132727985Y-127689242D01*
X132680366Y-127641623D01*
X129815294Y-132461261D02*
X129481960Y-131985070D01*
X129243865Y-132461261D02*
X129243865Y-131461261D01*
X129624818Y-131461261D01*
X129720056Y-131508880D01*
X129767675Y-131556499D01*
X129815294Y-131651737D01*
X129815294Y-131794594D01*
X129767675Y-131889832D01*
X129720056Y-131937451D01*
X129624818Y-131985070D01*
X129243865Y-131985070D01*
X130672437Y-131461261D02*
X130481960Y-131461261D01*
X130386722Y-131508880D01*
X130339103Y-131556499D01*
X130243865Y-131699356D01*
X130196246Y-131889832D01*
X130196246Y-132270785D01*
X130243865Y-132366023D01*
X130291484Y-132413642D01*
X130386722Y-132461261D01*
X130577199Y-132461261D01*
X130672437Y-132413642D01*
X130720056Y-132366023D01*
X130767675Y-132270785D01*
X130767675Y-132032690D01*
X130720056Y-131937451D01*
X130672437Y-131889832D01*
X130577199Y-131842213D01*
X130386722Y-131842213D01*
X130291484Y-131889832D01*
X130243865Y-131937451D01*
X130196246Y-132032690D01*
X141407854Y-114067863D02*
X141360235Y-114115482D01*
X141217378Y-114163101D01*
X141122140Y-114163101D01*
X140979282Y-114115482D01*
X140884044Y-114020244D01*
X140836425Y-113925006D01*
X140788806Y-113734530D01*
X140788806Y-113591672D01*
X140836425Y-113401196D01*
X140884044Y-113305958D01*
X140979282Y-113210720D01*
X141122140Y-113163101D01*
X141217378Y-113163101D01*
X141360235Y-113210720D01*
X141407854Y-113258339D01*
X142264997Y-113163101D02*
X142074520Y-113163101D01*
X141979282Y-113210720D01*
X141931663Y-113258339D01*
X141836425Y-113401196D01*
X141788806Y-113591672D01*
X141788806Y-113972625D01*
X141836425Y-114067863D01*
X141884044Y-114115482D01*
X141979282Y-114163101D01*
X142169759Y-114163101D01*
X142264997Y-114115482D01*
X142312616Y-114067863D01*
X142360235Y-113972625D01*
X142360235Y-113734530D01*
X142312616Y-113639291D01*
X142264997Y-113591672D01*
X142169759Y-113544053D01*
X141979282Y-113544053D01*
X141884044Y-113591672D01*
X141836425Y-113639291D01*
X141788806Y-113734530D01*
X148888225Y-121021101D02*
X148888225Y-120021101D01*
X149126320Y-120021101D01*
X149269178Y-120068720D01*
X149364416Y-120163958D01*
X149412035Y-120259196D01*
X149459654Y-120449672D01*
X149459654Y-120592530D01*
X149412035Y-120783006D01*
X149364416Y-120878244D01*
X149269178Y-120973482D01*
X149126320Y-121021101D01*
X148888225Y-121021101D01*
X149792987Y-120021101D02*
X150412035Y-120021101D01*
X150078701Y-120402053D01*
X150221559Y-120402053D01*
X150316797Y-120449672D01*
X150364416Y-120497291D01*
X150412035Y-120592530D01*
X150412035Y-120830625D01*
X150364416Y-120925863D01*
X150316797Y-120973482D01*
X150221559Y-121021101D01*
X149935844Y-121021101D01*
X149840606Y-120973482D01*
X149792987Y-120925863D01*
X126250381Y-115831857D02*
X125774190Y-116165191D01*
X126250381Y-116403286D02*
X125250381Y-116403286D01*
X125250381Y-116022333D01*
X125298000Y-115927095D01*
X125345619Y-115879476D01*
X125440857Y-115831857D01*
X125583714Y-115831857D01*
X125678952Y-115879476D01*
X125726571Y-115927095D01*
X125774190Y-116022333D01*
X125774190Y-116403286D01*
X126250381Y-114879476D02*
X126250381Y-115450905D01*
X126250381Y-115165191D02*
X125250381Y-115165191D01*
X125393238Y-115260429D01*
X125488476Y-115355667D01*
X125536095Y-115450905D01*
X125250381Y-114260429D02*
X125250381Y-114165190D01*
X125298000Y-114069952D01*
X125345619Y-114022333D01*
X125440857Y-113974714D01*
X125631333Y-113927095D01*
X125869429Y-113927095D01*
X126059905Y-113974714D01*
X126155143Y-114022333D01*
X126202762Y-114069952D01*
X126250381Y-114165190D01*
X126250381Y-114260429D01*
X126202762Y-114355667D01*
X126155143Y-114403286D01*
X126059905Y-114450905D01*
X125869429Y-114498524D01*
X125631333Y-114498524D01*
X125440857Y-114450905D01*
X125345619Y-114403286D01*
X125298000Y-114355667D01*
X125250381Y-114260429D01*
X126277810Y-118057381D02*
X126277810Y-117057381D01*
X127325429Y-117962143D02*
X127277810Y-118009762D01*
X127134953Y-118057381D01*
X127039715Y-118057381D01*
X126896857Y-118009762D01*
X126801619Y-117914524D01*
X126754000Y-117819286D01*
X126706381Y-117628810D01*
X126706381Y-117485952D01*
X126754000Y-117295476D01*
X126801619Y-117200238D01*
X126896857Y-117105000D01*
X127039715Y-117057381D01*
X127134953Y-117057381D01*
X127277810Y-117105000D01*
X127325429Y-117152619D01*
X128277810Y-118057381D02*
X127706381Y-118057381D01*
X127992095Y-118057381D02*
X127992095Y-117057381D01*
X127896857Y-117200238D01*
X127801619Y-117295476D01*
X127706381Y-117343095D01*
X141819334Y-140506143D02*
X141771715Y-140553762D01*
X141628858Y-140601381D01*
X141533620Y-140601381D01*
X141390762Y-140553762D01*
X141295524Y-140458524D01*
X141247905Y-140363286D01*
X141200286Y-140172810D01*
X141200286Y-140029952D01*
X141247905Y-139839476D01*
X141295524Y-139744238D01*
X141390762Y-139649000D01*
X141533620Y-139601381D01*
X141628858Y-139601381D01*
X141771715Y-139649000D01*
X141819334Y-139696619D01*
X142152667Y-139601381D02*
X142819334Y-139601381D01*
X142390762Y-140601381D01*
X145529063Y-134406901D02*
X145195729Y-133930710D01*
X144957634Y-134406901D02*
X144957634Y-133406901D01*
X145338587Y-133406901D01*
X145433825Y-133454520D01*
X145481444Y-133502139D01*
X145529063Y-133597377D01*
X145529063Y-133740234D01*
X145481444Y-133835472D01*
X145433825Y-133883091D01*
X145338587Y-133930710D01*
X144957634Y-133930710D01*
X146481444Y-134406901D02*
X145910015Y-134406901D01*
X146195729Y-134406901D02*
X146195729Y-133406901D01*
X146100491Y-133549758D01*
X146005253Y-133644996D01*
X145910015Y-133692615D01*
X147433825Y-134406901D02*
X146862396Y-134406901D01*
X147148110Y-134406901D02*
X147148110Y-133406901D01*
X147052872Y-133549758D01*
X146957634Y-133644996D01*
X146862396Y-133692615D01*
X132722787Y-137762882D02*
X132865644Y-137810501D01*
X133103740Y-137810501D01*
X133198978Y-137762882D01*
X133246597Y-137715263D01*
X133294216Y-137620025D01*
X133294216Y-137524787D01*
X133246597Y-137429549D01*
X133198978Y-137381930D01*
X133103740Y-137334310D01*
X132913263Y-137286691D01*
X132818025Y-137239072D01*
X132770406Y-137191453D01*
X132722787Y-137096215D01*
X132722787Y-137000977D01*
X132770406Y-136905739D01*
X132818025Y-136858120D01*
X132913263Y-136810501D01*
X133151359Y-136810501D01*
X133294216Y-136858120D01*
X133627549Y-136810501D02*
X133865644Y-137810501D01*
X134056121Y-137096215D01*
X134246597Y-137810501D01*
X134484692Y-136810501D01*
X135389454Y-137810501D02*
X134818025Y-137810501D01*
X135103739Y-137810501D02*
X135103739Y-136810501D01*
X135008501Y-136953358D01*
X134913263Y-137048596D01*
X134818025Y-137096215D01*
X108980501Y-127047215D02*
X107980501Y-127047215D01*
X107980501Y-126666262D01*
X108028120Y-126571024D01*
X108075739Y-126523405D01*
X108170977Y-126475786D01*
X108313834Y-126475786D01*
X108409072Y-126523405D01*
X108456691Y-126571024D01*
X108504310Y-126666262D01*
X108504310Y-127047215D01*
X107980501Y-126142453D02*
X107980501Y-125523405D01*
X108361453Y-125856739D01*
X108361453Y-125713881D01*
X108409072Y-125618643D01*
X108456691Y-125571024D01*
X108551930Y-125523405D01*
X108790025Y-125523405D01*
X108885263Y-125571024D01*
X108932882Y-125618643D01*
X108980501Y-125713881D01*
X108980501Y-125999596D01*
X108932882Y-126094834D01*
X108885263Y-126142453D01*
X132657625Y-125389901D02*
X132657625Y-124389901D01*
X133038578Y-124389901D01*
X133133816Y-124437520D01*
X133181435Y-124485139D01*
X133229054Y-124580377D01*
X133229054Y-124723234D01*
X133181435Y-124818472D01*
X133133816Y-124866091D01*
X133038578Y-124913710D01*
X132657625Y-124913710D01*
X133610006Y-124485139D02*
X133657625Y-124437520D01*
X133752863Y-124389901D01*
X133990959Y-124389901D01*
X134086197Y-124437520D01*
X134133816Y-124485139D01*
X134181435Y-124580377D01*
X134181435Y-124675615D01*
X134133816Y-124818472D01*
X133562387Y-125389901D01*
X134181435Y-125389901D01*
X141915854Y-124450101D02*
X141439663Y-124450101D01*
X141439663Y-123450101D01*
X142772997Y-124450101D02*
X142201568Y-124450101D01*
X142487282Y-124450101D02*
X142487282Y-123450101D01*
X142392044Y-123592958D01*
X142296806Y-123688196D01*
X142201568Y-123735815D01*
M02*
