G04 #@! TF.FileFunction,Paste,Top*
%FSLAX46Y46*%
G04 Gerber Fmt 4.6, Leading zero omitted, Abs format (unit mm)*
G04 Created by KiCad (PCBNEW 4.0.4-stable) date 01/28/17 21:45:27*
%MOMM*%
%LPD*%
G01*
G04 APERTURE LIST*
%ADD10C,0.100000*%
%ADD11R,2.500000X2.100000*%
%ADD12R,1.500000X2.100000*%
%ADD13R,0.650000X1.060000*%
%ADD14R,1.500000X1.300000*%
%ADD15R,1.250000X1.500000*%
%ADD16R,1.300000X1.500000*%
%ADD17R,1.000000X1.000000*%
%ADD18R,1.700000X0.650000*%
%ADD19R,1.500000X1.250000*%
%ADD20R,3.200000X1.100000*%
G04 APERTURE END LIST*
D10*
D11*
X125690320Y-136900920D03*
D12*
X128350320Y-136900920D03*
D11*
X125639520Y-141879320D03*
D12*
X128299520Y-141879320D03*
D13*
X145608000Y-117051000D03*
X146558000Y-117051000D03*
X147508000Y-117051000D03*
X147508000Y-114851000D03*
X145608000Y-114851000D03*
D14*
X155274000Y-125349000D03*
X152574000Y-125349000D03*
X155274000Y-129667000D03*
X152574000Y-129667000D03*
X143590000Y-130683000D03*
X140890000Y-130683000D03*
X140542000Y-125857000D03*
X137842000Y-125857000D03*
D15*
X150114000Y-122996640D03*
X150114000Y-125496640D03*
X140716000Y-132989000D03*
X140716000Y-135489000D03*
X135382000Y-125877000D03*
X135382000Y-128377000D03*
X128270000Y-114193000D03*
X128270000Y-116693000D03*
D16*
X123261120Y-130503920D03*
X123261120Y-127803920D03*
D14*
X145081000Y-122966480D03*
X147781000Y-122966480D03*
X147781000Y-126151640D03*
X145081000Y-126151640D03*
X130382000Y-127127000D03*
X127682000Y-127127000D03*
X130382000Y-129921000D03*
X127682000Y-129921000D03*
D17*
X147808000Y-120523000D03*
X145308000Y-120523000D03*
D16*
X123698000Y-113839000D03*
X123698000Y-116539000D03*
D18*
X123604000Y-119380000D03*
X123604000Y-120650000D03*
X123604000Y-121920000D03*
X123604000Y-123190000D03*
X130904000Y-123190000D03*
X130904000Y-121920000D03*
X130904000Y-120650000D03*
X130904000Y-119380000D03*
D19*
X143236000Y-138049000D03*
X140736000Y-138049000D03*
D16*
X143764000Y-132889000D03*
X143764000Y-135589000D03*
D20*
X142057120Y-122507720D03*
X142057120Y-120407720D03*
M02*
