G04 #@! TF.FileFunction,Copper,L1,Top,Signal*
%FSLAX46Y46*%
G04 Gerber Fmt 4.6, Leading zero omitted, Abs format (unit mm)*
G04 Created by KiCad (PCBNEW 4.0.4-stable) date 01/28/17 21:45:27*
%MOMM*%
%LPD*%
G01*
G04 APERTURE LIST*
%ADD10C,0.100000*%
%ADD11R,1.900000X1.900000*%
%ADD12C,1.900000*%
%ADD13R,1.600000X1.600000*%
%ADD14O,1.600000X1.600000*%
%ADD15R,2.500000X2.100000*%
%ADD16R,1.500000X2.100000*%
%ADD17R,0.650000X1.060000*%
%ADD18R,1.500000X1.300000*%
%ADD19R,1.250000X1.500000*%
%ADD20R,1.300000X1.500000*%
%ADD21R,1.200000X1.200000*%
%ADD22C,1.200000*%
%ADD23R,1.000000X1.000000*%
%ADD24R,1.700000X0.650000*%
%ADD25R,1.500000X1.250000*%
%ADD26C,1.100000*%
%ADD27C,1.520000*%
%ADD28C,2.700000*%
%ADD29R,1.700000X1.700000*%
%ADD30O,1.700000X1.700000*%
%ADD31R,3.200000X1.100000*%
%ADD32C,0.600000*%
%ADD33C,0.500000*%
%ADD34C,0.250000*%
%ADD35C,0.800000*%
%ADD36C,0.254000*%
G04 APERTURE END LIST*
D10*
D11*
X162427920Y-146248120D03*
D12*
X162427920Y-143748120D03*
X162427920Y-141248120D03*
X162427920Y-138748120D03*
X162427920Y-136248120D03*
X162427920Y-133748120D03*
D13*
X155956000Y-133731000D03*
D14*
X148336000Y-141351000D03*
X153416000Y-133731000D03*
X150876000Y-141351000D03*
X150876000Y-133731000D03*
X153416000Y-141351000D03*
X148336000Y-133731000D03*
X155956000Y-141351000D03*
D15*
X125690320Y-136900920D03*
D16*
X128350320Y-136900920D03*
D15*
X125639520Y-141879320D03*
D16*
X128299520Y-141879320D03*
D17*
X145608000Y-117051000D03*
X146558000Y-117051000D03*
X147508000Y-117051000D03*
X147508000Y-114851000D03*
X145608000Y-114851000D03*
D18*
X155274000Y-125349000D03*
X152574000Y-125349000D03*
X155274000Y-129667000D03*
X152574000Y-129667000D03*
X143590000Y-130683000D03*
X140890000Y-130683000D03*
X140542000Y-125857000D03*
X137842000Y-125857000D03*
D19*
X150114000Y-122996640D03*
X150114000Y-125496640D03*
X140716000Y-132989000D03*
X140716000Y-135489000D03*
X135382000Y-125877000D03*
X135382000Y-128377000D03*
X128270000Y-114193000D03*
X128270000Y-116693000D03*
D20*
X123261120Y-130503920D03*
X123261120Y-127803920D03*
D18*
X145081000Y-122966480D03*
X147781000Y-122966480D03*
X147781000Y-126151640D03*
X145081000Y-126151640D03*
X130382000Y-127127000D03*
X127682000Y-127127000D03*
X130382000Y-129921000D03*
X127682000Y-129921000D03*
D21*
X141930120Y-116174520D03*
D22*
X141930120Y-117674520D03*
D23*
X147808000Y-120523000D03*
X145308000Y-120523000D03*
D20*
X123698000Y-113839000D03*
X123698000Y-116539000D03*
D24*
X123604000Y-119380000D03*
X123604000Y-120650000D03*
X123604000Y-121920000D03*
X123604000Y-123190000D03*
X130904000Y-123190000D03*
X130904000Y-121920000D03*
X130904000Y-120650000D03*
X130904000Y-119380000D03*
D25*
X143236000Y-138049000D03*
X140736000Y-138049000D03*
D20*
X143764000Y-132889000D03*
X143764000Y-135589000D03*
D26*
X131826000Y-133985000D03*
X136826000Y-138985000D03*
X136826000Y-133985000D03*
X131826000Y-138985000D03*
D27*
X119578120Y-125039120D03*
X119578120Y-127579120D03*
X117578120Y-127579120D03*
X117578120Y-125039120D03*
D28*
X114878120Y-120309120D03*
X114878120Y-132309120D03*
D29*
X137459720Y-122600720D03*
D30*
X134919720Y-122600720D03*
X137459720Y-120060720D03*
X134919720Y-120060720D03*
X137459720Y-117520720D03*
X134919720Y-117520720D03*
D31*
X142057120Y-122507720D03*
X142057120Y-120407720D03*
D32*
X121533920Y-123286520D03*
X146558000Y-118343680D03*
X129032000Y-116967000D03*
X122936000Y-121031000D03*
X136144000Y-130937000D03*
X140025120Y-124785120D03*
X122270520Y-114574320D03*
X122651520Y-127528320D03*
X132080000Y-125349000D03*
X135128000Y-125603000D03*
X126492000Y-130175000D03*
X129839720Y-123540520D03*
X124937520Y-116428520D03*
X160167320Y-135757920D03*
X152908000Y-126619000D03*
X122270520Y-122270520D03*
D33*
X162427920Y-133748120D02*
X162427920Y-129204720D01*
X156219840Y-122996640D02*
X150114000Y-122996640D01*
X162427920Y-129204720D02*
X156219840Y-122996640D01*
X147781000Y-122966480D02*
X150083840Y-122966480D01*
X150083840Y-122966480D02*
X150114000Y-122996640D01*
X147808000Y-120523000D02*
X147808000Y-122939480D01*
X147808000Y-122939480D02*
X147781000Y-122966480D01*
X140736000Y-138049000D02*
X137762000Y-138049000D01*
X137762000Y-138049000D02*
X136826000Y-138985000D01*
X136826000Y-133985000D02*
X139212000Y-133985000D01*
X139212000Y-133985000D02*
X140716000Y-135489000D01*
X136826000Y-138985000D02*
X136826000Y-133985000D01*
X123604000Y-123190000D02*
X121630440Y-123190000D01*
X121630440Y-123190000D02*
X121533920Y-123286520D01*
X146558000Y-117805200D02*
X146558000Y-118343680D01*
X128270000Y-121285000D02*
X128270000Y-116693000D01*
X128270000Y-116693000D02*
X128544000Y-116967000D01*
X128544000Y-116967000D02*
X129032000Y-116967000D01*
D34*
X146558000Y-117051000D02*
X146558000Y-117805200D01*
X146558000Y-118343680D02*
X146629120Y-118414800D01*
X146558000Y-118343680D02*
X146629120Y-118414800D01*
D33*
X126492000Y-123063000D02*
X128270000Y-121285000D01*
X123731000Y-123063000D02*
X126492000Y-123063000D01*
X123604000Y-123190000D02*
X123731000Y-123063000D01*
D34*
X140716000Y-132989000D02*
X140990000Y-132989000D01*
X140990000Y-132989000D02*
X142234920Y-134233920D01*
X149306280Y-142920720D02*
X150876000Y-141351000D01*
X147340320Y-142920720D02*
X149306280Y-142920720D01*
X146298920Y-141879320D02*
X147340320Y-142920720D01*
X146298920Y-135376920D02*
X146298920Y-141879320D01*
X145155920Y-134233920D02*
X146298920Y-135376920D01*
X142234920Y-134233920D02*
X145155920Y-134233920D01*
X140716000Y-132989000D02*
X140890000Y-132815000D01*
X140890000Y-132815000D02*
X140890000Y-130683000D01*
X136398000Y-130683000D02*
X137668000Y-130683000D01*
X123317000Y-120650000D02*
X122936000Y-121031000D01*
X136144000Y-130937000D02*
X136398000Y-130683000D01*
X140890000Y-130683000D02*
X137668000Y-130683000D01*
X124554000Y-120650000D02*
X123317000Y-120650000D01*
D33*
X142057120Y-122507720D02*
X142057120Y-123464320D01*
X142057120Y-123464320D02*
X142158720Y-123565920D01*
X141930120Y-116174520D02*
X139821920Y-116174520D01*
X139491720Y-120898920D02*
X142158720Y-123565920D01*
X139491720Y-116504720D02*
X139491720Y-120898920D01*
X139821920Y-116174520D02*
X139491720Y-116504720D01*
X140025120Y-124785120D02*
X140542000Y-125302000D01*
X140542000Y-125302000D02*
X140542000Y-125857000D01*
X142158720Y-123565920D02*
X142158720Y-124240280D01*
X142158720Y-124240280D02*
X140542000Y-125857000D01*
X123005840Y-113839000D02*
X123698000Y-113839000D01*
X122270520Y-114574320D02*
X123005840Y-113839000D01*
X122651520Y-127528320D02*
X122927120Y-127803920D01*
X122927120Y-127803920D02*
X123261120Y-127803920D01*
X123999000Y-113839000D02*
X123698000Y-113839000D01*
X143590000Y-130683000D02*
X143764000Y-130857000D01*
X143764000Y-130857000D02*
X143764000Y-132889000D01*
X145295800Y-114851000D02*
X145608000Y-114851000D01*
X128270000Y-114193000D02*
X130068000Y-114193000D01*
X130904000Y-115029000D02*
X130904000Y-119380000D01*
X130068000Y-114193000D02*
X130904000Y-115029000D01*
X123698000Y-113839000D02*
X127916000Y-113839000D01*
X127916000Y-113839000D02*
X128270000Y-114193000D01*
X130048000Y-118999000D02*
X130523000Y-118999000D01*
X130523000Y-118999000D02*
X130904000Y-119380000D01*
D35*
X140542000Y-125857000D02*
X140970000Y-125857000D01*
X140970000Y-125857000D02*
X143590000Y-128477000D01*
X143590000Y-128477000D02*
X143590000Y-130683000D01*
X145608000Y-114851000D02*
X147508000Y-114851000D01*
D34*
X129954000Y-119380000D02*
X129954000Y-119093000D01*
X129954000Y-119093000D02*
X130048000Y-118999000D01*
X137459720Y-122600720D02*
X137459720Y-125474720D01*
X137459720Y-125474720D02*
X137842000Y-125857000D01*
X132334000Y-122301000D02*
X132334000Y-125095000D01*
X131953000Y-121920000D02*
X132334000Y-122301000D01*
X132334000Y-125095000D02*
X132080000Y-125349000D01*
X129954000Y-121920000D02*
X130751158Y-121920000D01*
X129954000Y-121920000D02*
X130683000Y-121920000D01*
X135128000Y-125603000D02*
X135382000Y-125857000D01*
X135382000Y-125857000D02*
X135382000Y-125877000D01*
X130904000Y-121920000D02*
X131953000Y-121920000D01*
X135818560Y-125877000D02*
X135382000Y-125877000D01*
X137842000Y-125857000D02*
X135402000Y-125857000D01*
X135402000Y-125857000D02*
X135382000Y-125877000D01*
X128350320Y-136900920D02*
X128350320Y-135182920D01*
X128350320Y-135182920D02*
X123671320Y-130503920D01*
X123671320Y-130503920D02*
X123261120Y-130503920D01*
X128807520Y-136917120D02*
X128807520Y-137002520D01*
X123261120Y-130503920D02*
X122071120Y-130503920D01*
X121127520Y-126588520D02*
X119578120Y-125039120D01*
X121127520Y-129560320D02*
X121127520Y-126588520D01*
X122071120Y-130503920D02*
X121127520Y-129560320D01*
X123261120Y-130503920D02*
X124044720Y-130503920D01*
X124044720Y-130503920D02*
X127421640Y-127127000D01*
X127421640Y-127127000D02*
X127682000Y-127127000D01*
X127682000Y-129921000D02*
X127682000Y-131517400D01*
X130652520Y-139526320D02*
X128299520Y-141879320D01*
X130652520Y-134487920D02*
X130652520Y-139526320D01*
X127682000Y-131517400D02*
X130652520Y-134487920D01*
X126746000Y-129921000D02*
X127682000Y-129921000D01*
X126492000Y-130175000D02*
X126746000Y-129921000D01*
X127254000Y-130349000D02*
X127682000Y-129921000D01*
D33*
X145308000Y-120523000D02*
X142316200Y-120523000D01*
X142316200Y-120523000D02*
X142158720Y-120365520D01*
D35*
X145608000Y-117051000D02*
X145608000Y-120223000D01*
X145608000Y-120223000D02*
X145308000Y-120523000D01*
D34*
X145608000Y-120223000D02*
X145308000Y-120523000D01*
D33*
X145081000Y-122966480D02*
X145081000Y-126151640D01*
X145081000Y-122966480D02*
X145298160Y-122966480D01*
X145298160Y-122966480D02*
X146685000Y-121579640D01*
X147508000Y-119004040D02*
X147508000Y-117051000D01*
X146685000Y-119827040D02*
X147508000Y-119004040D01*
X146685000Y-121579640D02*
X146685000Y-119827040D01*
D34*
X129839720Y-123540520D02*
X130190240Y-123190000D01*
X130190240Y-123190000D02*
X130904000Y-123190000D01*
X130683000Y-123190000D02*
X129954000Y-123190000D01*
X130382000Y-127127000D02*
X130382000Y-123618000D01*
X130382000Y-123618000D02*
X129954000Y-123190000D01*
X137459720Y-120060720D02*
X137459720Y-119984520D01*
X137459720Y-119984520D02*
X136316720Y-118841520D01*
X136316720Y-118841520D02*
X133573520Y-118841520D01*
X133573520Y-118841520D02*
X132842000Y-119573040D01*
X132842000Y-119573040D02*
X132842000Y-121539000D01*
X132842000Y-121539000D02*
X132842000Y-127461000D01*
X131953000Y-120650000D02*
X132842000Y-121539000D01*
X130904000Y-120650000D02*
X131953000Y-120650000D01*
X132842000Y-127461000D02*
X130382000Y-129921000D01*
X130937000Y-120650000D02*
X129954000Y-120650000D01*
X130382000Y-129921000D02*
X130556000Y-129921000D01*
X130937000Y-120650000D02*
X129954000Y-120650000D01*
X124937520Y-116428520D02*
X124827040Y-116539000D01*
X124827040Y-116539000D02*
X123698000Y-116539000D01*
X124206000Y-117047000D02*
X123698000Y-116539000D01*
X123698000Y-116539000D02*
X123604000Y-116633000D01*
X123604000Y-116633000D02*
X123604000Y-119380000D01*
X148336000Y-133731000D02*
X148590000Y-133731000D01*
X148590000Y-133731000D02*
X150794720Y-135935720D01*
X159379920Y-140700120D02*
X162427920Y-143748120D01*
X159379920Y-138526520D02*
X159379920Y-140700120D01*
X156789120Y-135935720D02*
X159379920Y-138526520D01*
X150794720Y-135935720D02*
X156789120Y-135935720D01*
X148844000Y-133731000D02*
X148336000Y-133731000D01*
X155274000Y-129667000D02*
X155274000Y-130458200D01*
X160167320Y-135351520D02*
X160167320Y-135757920D01*
X155274000Y-130458200D02*
X160167320Y-135351520D01*
X155274000Y-129667000D02*
X155524200Y-129667000D01*
X162427920Y-138748120D02*
X161277920Y-138748120D01*
X154858720Y-135173720D02*
X153416000Y-133731000D01*
X157703520Y-135173720D02*
X154858720Y-135173720D01*
X161277920Y-138748120D02*
X157703520Y-135173720D01*
X162427920Y-136248120D02*
X161902120Y-136248120D01*
X161902120Y-136248120D02*
X156738320Y-131084320D01*
X156738320Y-131084320D02*
X156738320Y-126813320D01*
X156738320Y-126813320D02*
X155274000Y-125349000D01*
X155274000Y-125349000D02*
X155930600Y-125349000D01*
X152574000Y-125349000D02*
X152574000Y-126285000D01*
X152574000Y-126285000D02*
X152908000Y-126619000D01*
X152574000Y-129667000D02*
X152574000Y-132033000D01*
X152574000Y-132033000D02*
X150876000Y-133731000D01*
X122621040Y-121920000D02*
X123604000Y-121920000D01*
X122270520Y-122270520D02*
X122621040Y-121920000D01*
X123604000Y-121920000D02*
X123477000Y-121793000D01*
X142494000Y-140081000D02*
X142240000Y-140081000D01*
X132922000Y-140081000D02*
X142240000Y-140081000D01*
X131826000Y-138985000D02*
X132922000Y-140081000D01*
X143256000Y-139319000D02*
X142494000Y-140081000D01*
X143256000Y-139319000D02*
X143256000Y-138069000D01*
X143236000Y-138049000D02*
X143256000Y-138069000D01*
X143764000Y-135589000D02*
X143236000Y-136117000D01*
X143236000Y-136117000D02*
X143236000Y-138049000D01*
X131826000Y-133985000D02*
X131826000Y-138985000D01*
D36*
G36*
X145415000Y-115873560D02*
X145283000Y-115873560D01*
X145047683Y-115917838D01*
X144831559Y-116056910D01*
X144686569Y-116269110D01*
X144635560Y-116521000D01*
X144635560Y-116736491D01*
X144589709Y-116967000D01*
X142968864Y-116967000D01*
X142630605Y-116628149D01*
X142176854Y-116439735D01*
X141685541Y-116439306D01*
X141231463Y-116626928D01*
X140890796Y-116967000D01*
X138863671Y-116967000D01*
X138860774Y-116952435D01*
X138538867Y-116470666D01*
X138057098Y-116148759D01*
X137488813Y-116035720D01*
X137430627Y-116035720D01*
X136862342Y-116148759D01*
X136380573Y-116470666D01*
X136189720Y-116756298D01*
X135998867Y-116470666D01*
X135517098Y-116148759D01*
X134948813Y-116035720D01*
X134890627Y-116035720D01*
X134322342Y-116148759D01*
X133840573Y-116470666D01*
X133518666Y-116952435D01*
X133515769Y-116967000D01*
X129967001Y-116967000D01*
X129967162Y-116781833D01*
X129825117Y-116438057D01*
X129562327Y-116174808D01*
X129542440Y-116166550D01*
X129542440Y-115943000D01*
X129498162Y-115707683D01*
X129359090Y-115491559D01*
X129146890Y-115346569D01*
X128895000Y-115295560D01*
X127645000Y-115295560D01*
X127409683Y-115339838D01*
X127193559Y-115478910D01*
X127048569Y-115691110D01*
X126997560Y-115943000D01*
X126997560Y-116967000D01*
X126619000Y-116967000D01*
X126619000Y-116332000D01*
X126608994Y-116282590D01*
X126580553Y-116240965D01*
X126538159Y-116213685D01*
X126492000Y-116205000D01*
X125856835Y-116205000D01*
X125730637Y-115899577D01*
X125467847Y-115636328D01*
X125124319Y-115493682D01*
X124912434Y-115493497D01*
X124812090Y-115337559D01*
X124599890Y-115192569D01*
X124348000Y-115141560D01*
X123048000Y-115141560D01*
X122812683Y-115185838D01*
X122596559Y-115324910D01*
X122451569Y-115537110D01*
X122400560Y-115789000D01*
X122400560Y-116205000D01*
X108629920Y-116205000D01*
X108629920Y-112465320D01*
X145415000Y-112465320D01*
X145415000Y-115873560D01*
X145415000Y-115873560D01*
G37*
X145415000Y-115873560D02*
X145283000Y-115873560D01*
X145047683Y-115917838D01*
X144831559Y-116056910D01*
X144686569Y-116269110D01*
X144635560Y-116521000D01*
X144635560Y-116736491D01*
X144589709Y-116967000D01*
X142968864Y-116967000D01*
X142630605Y-116628149D01*
X142176854Y-116439735D01*
X141685541Y-116439306D01*
X141231463Y-116626928D01*
X140890796Y-116967000D01*
X138863671Y-116967000D01*
X138860774Y-116952435D01*
X138538867Y-116470666D01*
X138057098Y-116148759D01*
X137488813Y-116035720D01*
X137430627Y-116035720D01*
X136862342Y-116148759D01*
X136380573Y-116470666D01*
X136189720Y-116756298D01*
X135998867Y-116470666D01*
X135517098Y-116148759D01*
X134948813Y-116035720D01*
X134890627Y-116035720D01*
X134322342Y-116148759D01*
X133840573Y-116470666D01*
X133518666Y-116952435D01*
X133515769Y-116967000D01*
X129967001Y-116967000D01*
X129967162Y-116781833D01*
X129825117Y-116438057D01*
X129562327Y-116174808D01*
X129542440Y-116166550D01*
X129542440Y-115943000D01*
X129498162Y-115707683D01*
X129359090Y-115491559D01*
X129146890Y-115346569D01*
X128895000Y-115295560D01*
X127645000Y-115295560D01*
X127409683Y-115339838D01*
X127193559Y-115478910D01*
X127048569Y-115691110D01*
X126997560Y-115943000D01*
X126997560Y-116967000D01*
X126619000Y-116967000D01*
X126619000Y-116332000D01*
X126608994Y-116282590D01*
X126580553Y-116240965D01*
X126538159Y-116213685D01*
X126492000Y-116205000D01*
X125856835Y-116205000D01*
X125730637Y-115899577D01*
X125467847Y-115636328D01*
X125124319Y-115493682D01*
X124912434Y-115493497D01*
X124812090Y-115337559D01*
X124599890Y-115192569D01*
X124348000Y-115141560D01*
X123048000Y-115141560D01*
X122812683Y-115185838D01*
X122596559Y-115324910D01*
X122451569Y-115537110D01*
X122400560Y-115789000D01*
X122400560Y-116205000D01*
X108629920Y-116205000D01*
X108629920Y-112465320D01*
X145415000Y-112465320D01*
X145415000Y-115873560D01*
G36*
X122844000Y-118407560D02*
X122754000Y-118407560D01*
X122518683Y-118451838D01*
X122302559Y-118590910D01*
X122157569Y-118803110D01*
X122106560Y-119055000D01*
X122106560Y-119705000D01*
X122150838Y-119940317D01*
X122198109Y-120013778D01*
X122157569Y-120073110D01*
X122106560Y-120325000D01*
X122106560Y-120590376D01*
X122001162Y-120844201D01*
X122000838Y-121216167D01*
X122055229Y-121347805D01*
X121741577Y-121477403D01*
X121478328Y-121740193D01*
X121335682Y-122083721D01*
X121335358Y-122455687D01*
X121477403Y-122799463D01*
X121740193Y-123062712D01*
X122083721Y-123205358D01*
X122455687Y-123205682D01*
X122799463Y-123063637D01*
X122970959Y-122892440D01*
X124454000Y-122892440D01*
X124689317Y-122848162D01*
X124905441Y-122709090D01*
X125050431Y-122496890D01*
X125101440Y-122245000D01*
X125101440Y-121595000D01*
X125057162Y-121359683D01*
X125009891Y-121286222D01*
X125050431Y-121226890D01*
X125053268Y-121212881D01*
X125091401Y-121187401D01*
X125256148Y-120940839D01*
X125314000Y-120650000D01*
X125256148Y-120359161D01*
X125091401Y-120112599D01*
X125057170Y-120089727D01*
X125057162Y-120089683D01*
X125009891Y-120016222D01*
X125050431Y-119956890D01*
X125101440Y-119705000D01*
X125101440Y-119055000D01*
X125057162Y-118819683D01*
X124918090Y-118603559D01*
X124705890Y-118458569D01*
X124454000Y-118407560D01*
X124364000Y-118407560D01*
X124364000Y-118155720D01*
X129838259Y-118155720D01*
X129709325Y-118181367D01*
X129422210Y-118373210D01*
X129230367Y-118660325D01*
X129163000Y-118999000D01*
X129194000Y-119154847D01*
X129194000Y-119380000D01*
X129251852Y-119670839D01*
X129416599Y-119917401D01*
X129450830Y-119940273D01*
X129450838Y-119940317D01*
X129498109Y-120013778D01*
X129457569Y-120073110D01*
X129454732Y-120087119D01*
X129416599Y-120112599D01*
X129251852Y-120359161D01*
X129194000Y-120650000D01*
X129251852Y-120940839D01*
X129416599Y-121187401D01*
X129450830Y-121210273D01*
X129450838Y-121210317D01*
X129498109Y-121283778D01*
X129457569Y-121343110D01*
X129454732Y-121357119D01*
X129416599Y-121382599D01*
X129251852Y-121629161D01*
X129194000Y-121920000D01*
X129251852Y-122210839D01*
X129416599Y-122457401D01*
X129450830Y-122480273D01*
X129450838Y-122480317D01*
X129498109Y-122553778D01*
X129457569Y-122613110D01*
X129454732Y-122627119D01*
X129416599Y-122652599D01*
X129369453Y-122723159D01*
X129310777Y-122747403D01*
X129047528Y-123010193D01*
X128904882Y-123353721D01*
X128904558Y-123725687D01*
X129046603Y-124069463D01*
X129309393Y-124332712D01*
X129622000Y-124462518D01*
X129622000Y-125831442D01*
X129396683Y-125873838D01*
X129180559Y-126012910D01*
X129035569Y-126225110D01*
X129032919Y-126238197D01*
X128896090Y-126025559D01*
X128683890Y-125880569D01*
X128432000Y-125829560D01*
X126932000Y-125829560D01*
X126696683Y-125873838D01*
X126480559Y-126012910D01*
X126335569Y-126225110D01*
X126284560Y-126477000D01*
X126284560Y-127189278D01*
X124254106Y-129219732D01*
X124163010Y-129157489D01*
X124149923Y-129154839D01*
X124362561Y-129018010D01*
X124507551Y-128805810D01*
X124558560Y-128553920D01*
X124558560Y-127053920D01*
X124514282Y-126818603D01*
X124375210Y-126602479D01*
X124163010Y-126457489D01*
X123911120Y-126406480D01*
X122611120Y-126406480D01*
X122375803Y-126450758D01*
X122159679Y-126589830D01*
X122014689Y-126802030D01*
X122004315Y-126853259D01*
X121887520Y-126969850D01*
X121887520Y-126588520D01*
X121829668Y-126297681D01*
X121753951Y-126184362D01*
X121664921Y-126051118D01*
X120960773Y-125346971D01*
X120972878Y-125317820D01*
X120973362Y-124762855D01*
X120761433Y-124249948D01*
X120369356Y-123857186D01*
X119856820Y-123644362D01*
X119301855Y-123643878D01*
X118788948Y-123855807D01*
X118578096Y-124066291D01*
X118369356Y-123857186D01*
X117856820Y-123644362D01*
X117301855Y-123643878D01*
X116788948Y-123855807D01*
X116396186Y-124247884D01*
X116183362Y-124760420D01*
X116182878Y-125315385D01*
X116394807Y-125828292D01*
X116786884Y-126221054D01*
X117299420Y-126433878D01*
X117854385Y-126434362D01*
X118367292Y-126222433D01*
X118578144Y-126011949D01*
X118786884Y-126221054D01*
X118998858Y-126309074D01*
X118788948Y-126395807D01*
X118396186Y-126787884D01*
X118183362Y-127300420D01*
X118182878Y-127855385D01*
X118394807Y-128368292D01*
X118786884Y-128761054D01*
X119299420Y-128973878D01*
X119854385Y-128974362D01*
X120367292Y-128762433D01*
X120367520Y-128762205D01*
X120367520Y-129560320D01*
X120425372Y-129851159D01*
X120590119Y-130097721D01*
X121533719Y-131041321D01*
X121780281Y-131206068D01*
X121963680Y-131242549D01*
X121963680Y-131253920D01*
X122007958Y-131489237D01*
X122147030Y-131705361D01*
X122359230Y-131850351D01*
X122611120Y-131901360D01*
X123911120Y-131901360D01*
X123980839Y-131888241D01*
X127350006Y-135257408D01*
X127148879Y-135386830D01*
X127003889Y-135599030D01*
X126952880Y-135850920D01*
X126952880Y-137950920D01*
X126997158Y-138186237D01*
X127136230Y-138402361D01*
X127348430Y-138547351D01*
X127600320Y-138598360D01*
X129100320Y-138598360D01*
X129335637Y-138554082D01*
X129551761Y-138415010D01*
X129696751Y-138202810D01*
X129747760Y-137950920D01*
X129747760Y-135850920D01*
X129703482Y-135615603D01*
X129564410Y-135399479D01*
X129352210Y-135254489D01*
X129110320Y-135205505D01*
X129110320Y-135182920D01*
X129091057Y-135086081D01*
X129052468Y-134892080D01*
X128887721Y-134645519D01*
X124932822Y-130690620D01*
X125557094Y-130066348D01*
X125556838Y-130360167D01*
X125698883Y-130703943D01*
X125961673Y-130967192D01*
X126305201Y-131109838D01*
X126596191Y-131110091D01*
X126680110Y-131167431D01*
X126922000Y-131216415D01*
X126922000Y-131517400D01*
X126979852Y-131808239D01*
X127144599Y-132054801D01*
X129892520Y-134802722D01*
X129892520Y-139211518D01*
X128922158Y-140181880D01*
X127549520Y-140181880D01*
X127314203Y-140226158D01*
X127098079Y-140365230D01*
X126953089Y-140577430D01*
X126902080Y-140829320D01*
X126902080Y-142929320D01*
X126946358Y-143164637D01*
X127085430Y-143380761D01*
X127297630Y-143525751D01*
X127549520Y-143576760D01*
X129049520Y-143576760D01*
X129284837Y-143532482D01*
X129500961Y-143393410D01*
X129645951Y-143181210D01*
X129696960Y-142929320D01*
X129696960Y-141556682D01*
X131189921Y-140063721D01*
X131221171Y-140016952D01*
X131589255Y-140169794D01*
X131936295Y-140170097D01*
X132384599Y-140618401D01*
X132631161Y-140783148D01*
X132922000Y-140841000D01*
X142494000Y-140841000D01*
X142784839Y-140783148D01*
X143031401Y-140618401D01*
X143793401Y-139856401D01*
X143958148Y-139609839D01*
X144016000Y-139319000D01*
X144016000Y-139315795D01*
X144221317Y-139277162D01*
X144437441Y-139138090D01*
X144582431Y-138925890D01*
X144633440Y-138674000D01*
X144633440Y-137424000D01*
X144589162Y-137188683D01*
X144454160Y-136978883D01*
X144649317Y-136942162D01*
X144865441Y-136803090D01*
X145010431Y-136590890D01*
X145061440Y-136339000D01*
X145061440Y-135214242D01*
X145538920Y-135691722D01*
X145538920Y-141879320D01*
X145596772Y-142170159D01*
X145761519Y-142416721D01*
X146802919Y-143458121D01*
X147049481Y-143622868D01*
X147340320Y-143680720D01*
X149306280Y-143680720D01*
X149597119Y-143622868D01*
X149843681Y-143458121D01*
X150552114Y-142749688D01*
X150876000Y-142814113D01*
X151425151Y-142704880D01*
X151890698Y-142393811D01*
X152201767Y-141928264D01*
X152311000Y-141379113D01*
X152311000Y-141322887D01*
X154521000Y-141322887D01*
X154521000Y-141379113D01*
X154630233Y-141928264D01*
X154941302Y-142393811D01*
X155406849Y-142704880D01*
X155956000Y-142814113D01*
X156505151Y-142704880D01*
X156970698Y-142393811D01*
X157281767Y-141928264D01*
X157391000Y-141379113D01*
X157391000Y-141322887D01*
X157281767Y-140773736D01*
X156970698Y-140308189D01*
X156505151Y-139997120D01*
X155956000Y-139887887D01*
X155406849Y-139997120D01*
X154941302Y-140308189D01*
X154630233Y-140773736D01*
X154521000Y-141322887D01*
X152311000Y-141322887D01*
X152201767Y-140773736D01*
X151890698Y-140308189D01*
X151425151Y-139997120D01*
X150876000Y-139887887D01*
X150326849Y-139997120D01*
X149861302Y-140308189D01*
X149550233Y-140773736D01*
X149441000Y-141322887D01*
X149441000Y-141379113D01*
X149496096Y-141656102D01*
X148991478Y-142160720D01*
X147655122Y-142160720D01*
X147058920Y-141564518D01*
X147058920Y-135376920D01*
X147001068Y-135086081D01*
X146836321Y-134839519D01*
X145693321Y-133696519D01*
X145446759Y-133531772D01*
X145155920Y-133473920D01*
X145061440Y-133473920D01*
X145061440Y-132139000D01*
X145017162Y-131903683D01*
X144878090Y-131687559D01*
X144870039Y-131682058D01*
X144936431Y-131584890D01*
X144987440Y-131333000D01*
X144987440Y-130033000D01*
X144943162Y-129797683D01*
X144804090Y-129581559D01*
X144625000Y-129459192D01*
X144625000Y-128477005D01*
X144625001Y-128477000D01*
X144546215Y-128080923D01*
X144480868Y-127983124D01*
X144321856Y-127745144D01*
X144321853Y-127745142D01*
X142113646Y-125536934D01*
X142784507Y-124866072D01*
X142784510Y-124866070D01*
X142976353Y-124578955D01*
X143043720Y-124240280D01*
X143043720Y-123705160D01*
X143657120Y-123705160D01*
X143698772Y-123697323D01*
X143727838Y-123851797D01*
X143866910Y-124067921D01*
X144079110Y-124212911D01*
X144196000Y-124236582D01*
X144196000Y-124879602D01*
X144095683Y-124898478D01*
X143879559Y-125037550D01*
X143734569Y-125249750D01*
X143683560Y-125501640D01*
X143683560Y-126801640D01*
X143727838Y-127036957D01*
X143866910Y-127253081D01*
X144079110Y-127398071D01*
X144331000Y-127449080D01*
X145831000Y-127449080D01*
X146066317Y-127404802D01*
X146282441Y-127265730D01*
X146427431Y-127053530D01*
X146478440Y-126801640D01*
X146478440Y-125501640D01*
X146434162Y-125266323D01*
X146295090Y-125050199D01*
X146082890Y-124905209D01*
X145966000Y-124881538D01*
X145966000Y-124238518D01*
X146066317Y-124219642D01*
X146282441Y-124080570D01*
X146427431Y-123868370D01*
X146430081Y-123855283D01*
X146566910Y-124067921D01*
X146779110Y-124212911D01*
X147031000Y-124263920D01*
X148531000Y-124263920D01*
X148766317Y-124219642D01*
X148959000Y-124095654D01*
X149024910Y-124198081D01*
X149237110Y-124343071D01*
X149489000Y-124394080D01*
X150739000Y-124394080D01*
X150974317Y-124349802D01*
X151190441Y-124210730D01*
X151335431Y-123998530D01*
X151359102Y-123881640D01*
X155853260Y-123881640D01*
X156023180Y-124051560D01*
X154524000Y-124051560D01*
X154288683Y-124095838D01*
X154072559Y-124234910D01*
X153927569Y-124447110D01*
X153924919Y-124460197D01*
X153788090Y-124247559D01*
X153575890Y-124102569D01*
X153324000Y-124051560D01*
X151824000Y-124051560D01*
X151588683Y-124095838D01*
X151372559Y-124234910D01*
X151227569Y-124447110D01*
X151176560Y-124699000D01*
X151176560Y-125999000D01*
X151220838Y-126234317D01*
X151359910Y-126450441D01*
X151572110Y-126595431D01*
X151824000Y-126646440D01*
X151919026Y-126646440D01*
X151972905Y-126727076D01*
X151972838Y-126804167D01*
X152114883Y-127147943D01*
X152377673Y-127411192D01*
X152721201Y-127553838D01*
X153093167Y-127554162D01*
X153436943Y-127412117D01*
X153700192Y-127149327D01*
X153842838Y-126805799D01*
X153843162Y-126433833D01*
X153825175Y-126390302D01*
X153920431Y-126250890D01*
X153923081Y-126237803D01*
X154059910Y-126450441D01*
X154272110Y-126595431D01*
X154524000Y-126646440D01*
X155496638Y-126646440D01*
X155978320Y-127128122D01*
X155978320Y-128369560D01*
X154524000Y-128369560D01*
X154288683Y-128413838D01*
X154072559Y-128552910D01*
X153927569Y-128765110D01*
X153924919Y-128778197D01*
X153788090Y-128565559D01*
X153575890Y-128420569D01*
X153324000Y-128369560D01*
X151824000Y-128369560D01*
X151588683Y-128413838D01*
X151372559Y-128552910D01*
X151227569Y-128765110D01*
X151176560Y-129017000D01*
X151176560Y-130317000D01*
X151220838Y-130552317D01*
X151359910Y-130768441D01*
X151572110Y-130913431D01*
X151814000Y-130962415D01*
X151814000Y-131718198D01*
X151199886Y-132332312D01*
X150876000Y-132267887D01*
X150326849Y-132377120D01*
X149861302Y-132688189D01*
X149606000Y-133070275D01*
X149350698Y-132688189D01*
X148885151Y-132377120D01*
X148336000Y-132267887D01*
X147786849Y-132377120D01*
X147321302Y-132688189D01*
X147010233Y-133153736D01*
X146901000Y-133702887D01*
X146901000Y-133759113D01*
X147010233Y-134308264D01*
X147321302Y-134773811D01*
X147786849Y-135084880D01*
X148336000Y-135194113D01*
X148871745Y-135087547D01*
X150257319Y-136473121D01*
X150503881Y-136637868D01*
X150794720Y-136695720D01*
X156474318Y-136695720D01*
X158619920Y-138841323D01*
X158619920Y-140700120D01*
X158677772Y-140990959D01*
X158842519Y-141237521D01*
X160899900Y-143294902D01*
X160843196Y-143431461D01*
X160842645Y-144062013D01*
X161083439Y-144644777D01*
X161528917Y-145091034D01*
X162111261Y-145332844D01*
X162741813Y-145333395D01*
X163324577Y-145092601D01*
X163770834Y-144647123D01*
X164012644Y-144064779D01*
X164013195Y-143434227D01*
X163772401Y-142851463D01*
X163419449Y-142497894D01*
X163770834Y-142147123D01*
X164012644Y-141564779D01*
X164012890Y-141283335D01*
X164022401Y-141283343D01*
X164494863Y-141088125D01*
X164856655Y-140726965D01*
X165052697Y-140254844D01*
X165053143Y-139743639D01*
X164857925Y-139271177D01*
X164496765Y-138909385D01*
X164024644Y-138713343D01*
X164012951Y-138713333D01*
X164013195Y-138434227D01*
X163772401Y-137851463D01*
X163419449Y-137497894D01*
X163770834Y-137147123D01*
X164012644Y-136564779D01*
X164013195Y-135934227D01*
X163772401Y-135351463D01*
X163419449Y-134997894D01*
X163770834Y-134647123D01*
X164012644Y-134064779D01*
X164013195Y-133434227D01*
X163772401Y-132851463D01*
X163326923Y-132405206D01*
X163312920Y-132399391D01*
X163312920Y-129204725D01*
X163312921Y-129204720D01*
X163245553Y-128866046D01*
X163245553Y-128866045D01*
X163053710Y-128578930D01*
X163053707Y-128578928D01*
X160623530Y-126148750D01*
X162492921Y-127414970D01*
X162646359Y-127479663D01*
X162739200Y-127518807D01*
X168448520Y-128691954D01*
X168448520Y-150084320D01*
X124151603Y-150084320D01*
X123067731Y-144727484D01*
X123016184Y-144604189D01*
X122964638Y-144480893D01*
X119600492Y-139481771D01*
X119410880Y-139293403D01*
X114389734Y-135962218D01*
X114377703Y-135957281D01*
X114142471Y-135860749D01*
X108629920Y-134783073D01*
X108629920Y-132702229D01*
X112892777Y-132702229D01*
X113194338Y-133432063D01*
X113752240Y-133990939D01*
X114481547Y-134293774D01*
X115271229Y-134294463D01*
X116001063Y-133992902D01*
X116559939Y-133435000D01*
X116862774Y-132705693D01*
X116863463Y-131916011D01*
X116561902Y-131186177D01*
X116004000Y-130627301D01*
X115274693Y-130324466D01*
X114485011Y-130323777D01*
X113755177Y-130625338D01*
X113196301Y-131183240D01*
X112893466Y-131912547D01*
X112892777Y-132702229D01*
X108629920Y-132702229D01*
X108629920Y-120702229D01*
X112892777Y-120702229D01*
X113194338Y-121432063D01*
X113752240Y-121990939D01*
X114481547Y-122293774D01*
X115271229Y-122294463D01*
X116001063Y-121992902D01*
X116559939Y-121435000D01*
X116862774Y-120705693D01*
X116863463Y-119916011D01*
X116561902Y-119186177D01*
X116004000Y-118627301D01*
X115274693Y-118324466D01*
X114485011Y-118323777D01*
X113755177Y-118625338D01*
X113196301Y-119183240D01*
X112893466Y-119912547D01*
X112892777Y-120702229D01*
X108629920Y-120702229D01*
X108629920Y-118155720D01*
X122844000Y-118155720D01*
X122844000Y-118407560D01*
X122844000Y-118407560D01*
G37*
X122844000Y-118407560D02*
X122754000Y-118407560D01*
X122518683Y-118451838D01*
X122302559Y-118590910D01*
X122157569Y-118803110D01*
X122106560Y-119055000D01*
X122106560Y-119705000D01*
X122150838Y-119940317D01*
X122198109Y-120013778D01*
X122157569Y-120073110D01*
X122106560Y-120325000D01*
X122106560Y-120590376D01*
X122001162Y-120844201D01*
X122000838Y-121216167D01*
X122055229Y-121347805D01*
X121741577Y-121477403D01*
X121478328Y-121740193D01*
X121335682Y-122083721D01*
X121335358Y-122455687D01*
X121477403Y-122799463D01*
X121740193Y-123062712D01*
X122083721Y-123205358D01*
X122455687Y-123205682D01*
X122799463Y-123063637D01*
X122970959Y-122892440D01*
X124454000Y-122892440D01*
X124689317Y-122848162D01*
X124905441Y-122709090D01*
X125050431Y-122496890D01*
X125101440Y-122245000D01*
X125101440Y-121595000D01*
X125057162Y-121359683D01*
X125009891Y-121286222D01*
X125050431Y-121226890D01*
X125053268Y-121212881D01*
X125091401Y-121187401D01*
X125256148Y-120940839D01*
X125314000Y-120650000D01*
X125256148Y-120359161D01*
X125091401Y-120112599D01*
X125057170Y-120089727D01*
X125057162Y-120089683D01*
X125009891Y-120016222D01*
X125050431Y-119956890D01*
X125101440Y-119705000D01*
X125101440Y-119055000D01*
X125057162Y-118819683D01*
X124918090Y-118603559D01*
X124705890Y-118458569D01*
X124454000Y-118407560D01*
X124364000Y-118407560D01*
X124364000Y-118155720D01*
X129838259Y-118155720D01*
X129709325Y-118181367D01*
X129422210Y-118373210D01*
X129230367Y-118660325D01*
X129163000Y-118999000D01*
X129194000Y-119154847D01*
X129194000Y-119380000D01*
X129251852Y-119670839D01*
X129416599Y-119917401D01*
X129450830Y-119940273D01*
X129450838Y-119940317D01*
X129498109Y-120013778D01*
X129457569Y-120073110D01*
X129454732Y-120087119D01*
X129416599Y-120112599D01*
X129251852Y-120359161D01*
X129194000Y-120650000D01*
X129251852Y-120940839D01*
X129416599Y-121187401D01*
X129450830Y-121210273D01*
X129450838Y-121210317D01*
X129498109Y-121283778D01*
X129457569Y-121343110D01*
X129454732Y-121357119D01*
X129416599Y-121382599D01*
X129251852Y-121629161D01*
X129194000Y-121920000D01*
X129251852Y-122210839D01*
X129416599Y-122457401D01*
X129450830Y-122480273D01*
X129450838Y-122480317D01*
X129498109Y-122553778D01*
X129457569Y-122613110D01*
X129454732Y-122627119D01*
X129416599Y-122652599D01*
X129369453Y-122723159D01*
X129310777Y-122747403D01*
X129047528Y-123010193D01*
X128904882Y-123353721D01*
X128904558Y-123725687D01*
X129046603Y-124069463D01*
X129309393Y-124332712D01*
X129622000Y-124462518D01*
X129622000Y-125831442D01*
X129396683Y-125873838D01*
X129180559Y-126012910D01*
X129035569Y-126225110D01*
X129032919Y-126238197D01*
X128896090Y-126025559D01*
X128683890Y-125880569D01*
X128432000Y-125829560D01*
X126932000Y-125829560D01*
X126696683Y-125873838D01*
X126480559Y-126012910D01*
X126335569Y-126225110D01*
X126284560Y-126477000D01*
X126284560Y-127189278D01*
X124254106Y-129219732D01*
X124163010Y-129157489D01*
X124149923Y-129154839D01*
X124362561Y-129018010D01*
X124507551Y-128805810D01*
X124558560Y-128553920D01*
X124558560Y-127053920D01*
X124514282Y-126818603D01*
X124375210Y-126602479D01*
X124163010Y-126457489D01*
X123911120Y-126406480D01*
X122611120Y-126406480D01*
X122375803Y-126450758D01*
X122159679Y-126589830D01*
X122014689Y-126802030D01*
X122004315Y-126853259D01*
X121887520Y-126969850D01*
X121887520Y-126588520D01*
X121829668Y-126297681D01*
X121753951Y-126184362D01*
X121664921Y-126051118D01*
X120960773Y-125346971D01*
X120972878Y-125317820D01*
X120973362Y-124762855D01*
X120761433Y-124249948D01*
X120369356Y-123857186D01*
X119856820Y-123644362D01*
X119301855Y-123643878D01*
X118788948Y-123855807D01*
X118578096Y-124066291D01*
X118369356Y-123857186D01*
X117856820Y-123644362D01*
X117301855Y-123643878D01*
X116788948Y-123855807D01*
X116396186Y-124247884D01*
X116183362Y-124760420D01*
X116182878Y-125315385D01*
X116394807Y-125828292D01*
X116786884Y-126221054D01*
X117299420Y-126433878D01*
X117854385Y-126434362D01*
X118367292Y-126222433D01*
X118578144Y-126011949D01*
X118786884Y-126221054D01*
X118998858Y-126309074D01*
X118788948Y-126395807D01*
X118396186Y-126787884D01*
X118183362Y-127300420D01*
X118182878Y-127855385D01*
X118394807Y-128368292D01*
X118786884Y-128761054D01*
X119299420Y-128973878D01*
X119854385Y-128974362D01*
X120367292Y-128762433D01*
X120367520Y-128762205D01*
X120367520Y-129560320D01*
X120425372Y-129851159D01*
X120590119Y-130097721D01*
X121533719Y-131041321D01*
X121780281Y-131206068D01*
X121963680Y-131242549D01*
X121963680Y-131253920D01*
X122007958Y-131489237D01*
X122147030Y-131705361D01*
X122359230Y-131850351D01*
X122611120Y-131901360D01*
X123911120Y-131901360D01*
X123980839Y-131888241D01*
X127350006Y-135257408D01*
X127148879Y-135386830D01*
X127003889Y-135599030D01*
X126952880Y-135850920D01*
X126952880Y-137950920D01*
X126997158Y-138186237D01*
X127136230Y-138402361D01*
X127348430Y-138547351D01*
X127600320Y-138598360D01*
X129100320Y-138598360D01*
X129335637Y-138554082D01*
X129551761Y-138415010D01*
X129696751Y-138202810D01*
X129747760Y-137950920D01*
X129747760Y-135850920D01*
X129703482Y-135615603D01*
X129564410Y-135399479D01*
X129352210Y-135254489D01*
X129110320Y-135205505D01*
X129110320Y-135182920D01*
X129091057Y-135086081D01*
X129052468Y-134892080D01*
X128887721Y-134645519D01*
X124932822Y-130690620D01*
X125557094Y-130066348D01*
X125556838Y-130360167D01*
X125698883Y-130703943D01*
X125961673Y-130967192D01*
X126305201Y-131109838D01*
X126596191Y-131110091D01*
X126680110Y-131167431D01*
X126922000Y-131216415D01*
X126922000Y-131517400D01*
X126979852Y-131808239D01*
X127144599Y-132054801D01*
X129892520Y-134802722D01*
X129892520Y-139211518D01*
X128922158Y-140181880D01*
X127549520Y-140181880D01*
X127314203Y-140226158D01*
X127098079Y-140365230D01*
X126953089Y-140577430D01*
X126902080Y-140829320D01*
X126902080Y-142929320D01*
X126946358Y-143164637D01*
X127085430Y-143380761D01*
X127297630Y-143525751D01*
X127549520Y-143576760D01*
X129049520Y-143576760D01*
X129284837Y-143532482D01*
X129500961Y-143393410D01*
X129645951Y-143181210D01*
X129696960Y-142929320D01*
X129696960Y-141556682D01*
X131189921Y-140063721D01*
X131221171Y-140016952D01*
X131589255Y-140169794D01*
X131936295Y-140170097D01*
X132384599Y-140618401D01*
X132631161Y-140783148D01*
X132922000Y-140841000D01*
X142494000Y-140841000D01*
X142784839Y-140783148D01*
X143031401Y-140618401D01*
X143793401Y-139856401D01*
X143958148Y-139609839D01*
X144016000Y-139319000D01*
X144016000Y-139315795D01*
X144221317Y-139277162D01*
X144437441Y-139138090D01*
X144582431Y-138925890D01*
X144633440Y-138674000D01*
X144633440Y-137424000D01*
X144589162Y-137188683D01*
X144454160Y-136978883D01*
X144649317Y-136942162D01*
X144865441Y-136803090D01*
X145010431Y-136590890D01*
X145061440Y-136339000D01*
X145061440Y-135214242D01*
X145538920Y-135691722D01*
X145538920Y-141879320D01*
X145596772Y-142170159D01*
X145761519Y-142416721D01*
X146802919Y-143458121D01*
X147049481Y-143622868D01*
X147340320Y-143680720D01*
X149306280Y-143680720D01*
X149597119Y-143622868D01*
X149843681Y-143458121D01*
X150552114Y-142749688D01*
X150876000Y-142814113D01*
X151425151Y-142704880D01*
X151890698Y-142393811D01*
X152201767Y-141928264D01*
X152311000Y-141379113D01*
X152311000Y-141322887D01*
X154521000Y-141322887D01*
X154521000Y-141379113D01*
X154630233Y-141928264D01*
X154941302Y-142393811D01*
X155406849Y-142704880D01*
X155956000Y-142814113D01*
X156505151Y-142704880D01*
X156970698Y-142393811D01*
X157281767Y-141928264D01*
X157391000Y-141379113D01*
X157391000Y-141322887D01*
X157281767Y-140773736D01*
X156970698Y-140308189D01*
X156505151Y-139997120D01*
X155956000Y-139887887D01*
X155406849Y-139997120D01*
X154941302Y-140308189D01*
X154630233Y-140773736D01*
X154521000Y-141322887D01*
X152311000Y-141322887D01*
X152201767Y-140773736D01*
X151890698Y-140308189D01*
X151425151Y-139997120D01*
X150876000Y-139887887D01*
X150326849Y-139997120D01*
X149861302Y-140308189D01*
X149550233Y-140773736D01*
X149441000Y-141322887D01*
X149441000Y-141379113D01*
X149496096Y-141656102D01*
X148991478Y-142160720D01*
X147655122Y-142160720D01*
X147058920Y-141564518D01*
X147058920Y-135376920D01*
X147001068Y-135086081D01*
X146836321Y-134839519D01*
X145693321Y-133696519D01*
X145446759Y-133531772D01*
X145155920Y-133473920D01*
X145061440Y-133473920D01*
X145061440Y-132139000D01*
X145017162Y-131903683D01*
X144878090Y-131687559D01*
X144870039Y-131682058D01*
X144936431Y-131584890D01*
X144987440Y-131333000D01*
X144987440Y-130033000D01*
X144943162Y-129797683D01*
X144804090Y-129581559D01*
X144625000Y-129459192D01*
X144625000Y-128477005D01*
X144625001Y-128477000D01*
X144546215Y-128080923D01*
X144480868Y-127983124D01*
X144321856Y-127745144D01*
X144321853Y-127745142D01*
X142113646Y-125536934D01*
X142784507Y-124866072D01*
X142784510Y-124866070D01*
X142976353Y-124578955D01*
X143043720Y-124240280D01*
X143043720Y-123705160D01*
X143657120Y-123705160D01*
X143698772Y-123697323D01*
X143727838Y-123851797D01*
X143866910Y-124067921D01*
X144079110Y-124212911D01*
X144196000Y-124236582D01*
X144196000Y-124879602D01*
X144095683Y-124898478D01*
X143879559Y-125037550D01*
X143734569Y-125249750D01*
X143683560Y-125501640D01*
X143683560Y-126801640D01*
X143727838Y-127036957D01*
X143866910Y-127253081D01*
X144079110Y-127398071D01*
X144331000Y-127449080D01*
X145831000Y-127449080D01*
X146066317Y-127404802D01*
X146282441Y-127265730D01*
X146427431Y-127053530D01*
X146478440Y-126801640D01*
X146478440Y-125501640D01*
X146434162Y-125266323D01*
X146295090Y-125050199D01*
X146082890Y-124905209D01*
X145966000Y-124881538D01*
X145966000Y-124238518D01*
X146066317Y-124219642D01*
X146282441Y-124080570D01*
X146427431Y-123868370D01*
X146430081Y-123855283D01*
X146566910Y-124067921D01*
X146779110Y-124212911D01*
X147031000Y-124263920D01*
X148531000Y-124263920D01*
X148766317Y-124219642D01*
X148959000Y-124095654D01*
X149024910Y-124198081D01*
X149237110Y-124343071D01*
X149489000Y-124394080D01*
X150739000Y-124394080D01*
X150974317Y-124349802D01*
X151190441Y-124210730D01*
X151335431Y-123998530D01*
X151359102Y-123881640D01*
X155853260Y-123881640D01*
X156023180Y-124051560D01*
X154524000Y-124051560D01*
X154288683Y-124095838D01*
X154072559Y-124234910D01*
X153927569Y-124447110D01*
X153924919Y-124460197D01*
X153788090Y-124247559D01*
X153575890Y-124102569D01*
X153324000Y-124051560D01*
X151824000Y-124051560D01*
X151588683Y-124095838D01*
X151372559Y-124234910D01*
X151227569Y-124447110D01*
X151176560Y-124699000D01*
X151176560Y-125999000D01*
X151220838Y-126234317D01*
X151359910Y-126450441D01*
X151572110Y-126595431D01*
X151824000Y-126646440D01*
X151919026Y-126646440D01*
X151972905Y-126727076D01*
X151972838Y-126804167D01*
X152114883Y-127147943D01*
X152377673Y-127411192D01*
X152721201Y-127553838D01*
X153093167Y-127554162D01*
X153436943Y-127412117D01*
X153700192Y-127149327D01*
X153842838Y-126805799D01*
X153843162Y-126433833D01*
X153825175Y-126390302D01*
X153920431Y-126250890D01*
X153923081Y-126237803D01*
X154059910Y-126450441D01*
X154272110Y-126595431D01*
X154524000Y-126646440D01*
X155496638Y-126646440D01*
X155978320Y-127128122D01*
X155978320Y-128369560D01*
X154524000Y-128369560D01*
X154288683Y-128413838D01*
X154072559Y-128552910D01*
X153927569Y-128765110D01*
X153924919Y-128778197D01*
X153788090Y-128565559D01*
X153575890Y-128420569D01*
X153324000Y-128369560D01*
X151824000Y-128369560D01*
X151588683Y-128413838D01*
X151372559Y-128552910D01*
X151227569Y-128765110D01*
X151176560Y-129017000D01*
X151176560Y-130317000D01*
X151220838Y-130552317D01*
X151359910Y-130768441D01*
X151572110Y-130913431D01*
X151814000Y-130962415D01*
X151814000Y-131718198D01*
X151199886Y-132332312D01*
X150876000Y-132267887D01*
X150326849Y-132377120D01*
X149861302Y-132688189D01*
X149606000Y-133070275D01*
X149350698Y-132688189D01*
X148885151Y-132377120D01*
X148336000Y-132267887D01*
X147786849Y-132377120D01*
X147321302Y-132688189D01*
X147010233Y-133153736D01*
X146901000Y-133702887D01*
X146901000Y-133759113D01*
X147010233Y-134308264D01*
X147321302Y-134773811D01*
X147786849Y-135084880D01*
X148336000Y-135194113D01*
X148871745Y-135087547D01*
X150257319Y-136473121D01*
X150503881Y-136637868D01*
X150794720Y-136695720D01*
X156474318Y-136695720D01*
X158619920Y-138841323D01*
X158619920Y-140700120D01*
X158677772Y-140990959D01*
X158842519Y-141237521D01*
X160899900Y-143294902D01*
X160843196Y-143431461D01*
X160842645Y-144062013D01*
X161083439Y-144644777D01*
X161528917Y-145091034D01*
X162111261Y-145332844D01*
X162741813Y-145333395D01*
X163324577Y-145092601D01*
X163770834Y-144647123D01*
X164012644Y-144064779D01*
X164013195Y-143434227D01*
X163772401Y-142851463D01*
X163419449Y-142497894D01*
X163770834Y-142147123D01*
X164012644Y-141564779D01*
X164012890Y-141283335D01*
X164022401Y-141283343D01*
X164494863Y-141088125D01*
X164856655Y-140726965D01*
X165052697Y-140254844D01*
X165053143Y-139743639D01*
X164857925Y-139271177D01*
X164496765Y-138909385D01*
X164024644Y-138713343D01*
X164012951Y-138713333D01*
X164013195Y-138434227D01*
X163772401Y-137851463D01*
X163419449Y-137497894D01*
X163770834Y-137147123D01*
X164012644Y-136564779D01*
X164013195Y-135934227D01*
X163772401Y-135351463D01*
X163419449Y-134997894D01*
X163770834Y-134647123D01*
X164012644Y-134064779D01*
X164013195Y-133434227D01*
X163772401Y-132851463D01*
X163326923Y-132405206D01*
X163312920Y-132399391D01*
X163312920Y-129204725D01*
X163312921Y-129204720D01*
X163245553Y-128866046D01*
X163245553Y-128866045D01*
X163053710Y-128578930D01*
X163053707Y-128578928D01*
X160623530Y-126148750D01*
X162492921Y-127414970D01*
X162646359Y-127479663D01*
X162739200Y-127518807D01*
X168448520Y-128691954D01*
X168448520Y-150084320D01*
X124151603Y-150084320D01*
X123067731Y-144727484D01*
X123016184Y-144604189D01*
X122964638Y-144480893D01*
X119600492Y-139481771D01*
X119410880Y-139293403D01*
X114389734Y-135962218D01*
X114377703Y-135957281D01*
X114142471Y-135860749D01*
X108629920Y-134783073D01*
X108629920Y-132702229D01*
X112892777Y-132702229D01*
X113194338Y-133432063D01*
X113752240Y-133990939D01*
X114481547Y-134293774D01*
X115271229Y-134294463D01*
X116001063Y-133992902D01*
X116559939Y-133435000D01*
X116862774Y-132705693D01*
X116863463Y-131916011D01*
X116561902Y-131186177D01*
X116004000Y-130627301D01*
X115274693Y-130324466D01*
X114485011Y-130323777D01*
X113755177Y-130625338D01*
X113196301Y-131183240D01*
X112893466Y-131912547D01*
X112892777Y-132702229D01*
X108629920Y-132702229D01*
X108629920Y-120702229D01*
X112892777Y-120702229D01*
X113194338Y-121432063D01*
X113752240Y-121990939D01*
X114481547Y-122293774D01*
X115271229Y-122294463D01*
X116001063Y-121992902D01*
X116559939Y-121435000D01*
X116862774Y-120705693D01*
X116863463Y-119916011D01*
X116561902Y-119186177D01*
X116004000Y-118627301D01*
X115274693Y-118324466D01*
X114485011Y-118323777D01*
X113755177Y-118625338D01*
X113196301Y-119183240D01*
X112893466Y-119912547D01*
X112892777Y-120702229D01*
X108629920Y-120702229D01*
X108629920Y-118155720D01*
X122844000Y-118155720D01*
X122844000Y-118407560D01*
G36*
X133840573Y-123650774D02*
X134322342Y-123972681D01*
X134890627Y-124085720D01*
X134948813Y-124085720D01*
X135517098Y-123972681D01*
X135998867Y-123650774D01*
X135999691Y-123649541D01*
X136006558Y-123686037D01*
X136145630Y-123902161D01*
X136357830Y-124047151D01*
X136609720Y-124098160D01*
X136699720Y-124098160D01*
X136699720Y-124704841D01*
X136640559Y-124742910D01*
X136575603Y-124837977D01*
X136471090Y-124675559D01*
X136258890Y-124530569D01*
X136007000Y-124479560D01*
X134757000Y-124479560D01*
X134521683Y-124523838D01*
X134305559Y-124662910D01*
X134160569Y-124875110D01*
X134109560Y-125127000D01*
X134109560Y-126627000D01*
X134153838Y-126862317D01*
X134292910Y-127078441D01*
X134505110Y-127223431D01*
X134757000Y-127274440D01*
X136007000Y-127274440D01*
X136242317Y-127230162D01*
X136458441Y-127091090D01*
X136589675Y-126899022D01*
X136627910Y-126958441D01*
X136840110Y-127103431D01*
X137092000Y-127154440D01*
X138592000Y-127154440D01*
X138827317Y-127110162D01*
X139043441Y-126971090D01*
X139188431Y-126758890D01*
X139191081Y-126745803D01*
X139327910Y-126958441D01*
X139540110Y-127103431D01*
X139792000Y-127154440D01*
X140803728Y-127154440D01*
X142555000Y-128905711D01*
X142555000Y-129461808D01*
X142388559Y-129568910D01*
X142243569Y-129781110D01*
X142240919Y-129794197D01*
X142104090Y-129581559D01*
X141891890Y-129436569D01*
X141640000Y-129385560D01*
X140140000Y-129385560D01*
X139904683Y-129429838D01*
X139688559Y-129568910D01*
X139543569Y-129781110D01*
X139514836Y-129923000D01*
X136398000Y-129923000D01*
X136107160Y-129980852D01*
X136075600Y-130001940D01*
X135958833Y-130001838D01*
X135615057Y-130143883D01*
X135351808Y-130406673D01*
X135209162Y-130750201D01*
X135208838Y-131122167D01*
X135350883Y-131465943D01*
X135613673Y-131729192D01*
X135957201Y-131871838D01*
X136329167Y-131872162D01*
X136672943Y-131730117D01*
X136936192Y-131467327D01*
X136946294Y-131443000D01*
X139513258Y-131443000D01*
X139536838Y-131568317D01*
X139660929Y-131761159D01*
X139639559Y-131774910D01*
X139494569Y-131987110D01*
X139443560Y-132239000D01*
X139443560Y-133739000D01*
X139487838Y-133974317D01*
X139626910Y-134190441D01*
X139839110Y-134335431D01*
X140091000Y-134386440D01*
X141312638Y-134386440D01*
X141697519Y-134771321D01*
X141944081Y-134936068D01*
X142234920Y-134993920D01*
X142466560Y-134993920D01*
X142466560Y-136339000D01*
X142476000Y-136389169D01*
X142476000Y-136778442D01*
X142250683Y-136820838D01*
X142034559Y-136959910D01*
X141889569Y-137172110D01*
X141838560Y-137424000D01*
X141838560Y-138674000D01*
X141882838Y-138909317D01*
X142021910Y-139125441D01*
X142231530Y-139268668D01*
X142179198Y-139321000D01*
X133236802Y-139321000D01*
X133010905Y-139095103D01*
X133011206Y-138750323D01*
X132831180Y-138314628D01*
X132586000Y-138069020D01*
X132586000Y-134900708D01*
X132830009Y-134657125D01*
X133010794Y-134221745D01*
X133011206Y-133750323D01*
X132831180Y-133314628D01*
X132498125Y-132980991D01*
X132062745Y-132800206D01*
X131591323Y-132799794D01*
X131155628Y-132979820D01*
X130821991Y-133312875D01*
X130742856Y-133503454D01*
X128453750Y-131214348D01*
X128667317Y-131174162D01*
X128883441Y-131035090D01*
X129028431Y-130822890D01*
X129031081Y-130809803D01*
X129167910Y-131022441D01*
X129380110Y-131167431D01*
X129632000Y-131218440D01*
X131132000Y-131218440D01*
X131367317Y-131174162D01*
X131583441Y-131035090D01*
X131728431Y-130822890D01*
X131779440Y-130571000D01*
X131779440Y-129598362D01*
X133379401Y-127998401D01*
X133544148Y-127751840D01*
X133602000Y-127461000D01*
X133602000Y-123293723D01*
X133840573Y-123650774D01*
X133840573Y-123650774D01*
G37*
X133840573Y-123650774D02*
X134322342Y-123972681D01*
X134890627Y-124085720D01*
X134948813Y-124085720D01*
X135517098Y-123972681D01*
X135998867Y-123650774D01*
X135999691Y-123649541D01*
X136006558Y-123686037D01*
X136145630Y-123902161D01*
X136357830Y-124047151D01*
X136609720Y-124098160D01*
X136699720Y-124098160D01*
X136699720Y-124704841D01*
X136640559Y-124742910D01*
X136575603Y-124837977D01*
X136471090Y-124675559D01*
X136258890Y-124530569D01*
X136007000Y-124479560D01*
X134757000Y-124479560D01*
X134521683Y-124523838D01*
X134305559Y-124662910D01*
X134160569Y-124875110D01*
X134109560Y-125127000D01*
X134109560Y-126627000D01*
X134153838Y-126862317D01*
X134292910Y-127078441D01*
X134505110Y-127223431D01*
X134757000Y-127274440D01*
X136007000Y-127274440D01*
X136242317Y-127230162D01*
X136458441Y-127091090D01*
X136589675Y-126899022D01*
X136627910Y-126958441D01*
X136840110Y-127103431D01*
X137092000Y-127154440D01*
X138592000Y-127154440D01*
X138827317Y-127110162D01*
X139043441Y-126971090D01*
X139188431Y-126758890D01*
X139191081Y-126745803D01*
X139327910Y-126958441D01*
X139540110Y-127103431D01*
X139792000Y-127154440D01*
X140803728Y-127154440D01*
X142555000Y-128905711D01*
X142555000Y-129461808D01*
X142388559Y-129568910D01*
X142243569Y-129781110D01*
X142240919Y-129794197D01*
X142104090Y-129581559D01*
X141891890Y-129436569D01*
X141640000Y-129385560D01*
X140140000Y-129385560D01*
X139904683Y-129429838D01*
X139688559Y-129568910D01*
X139543569Y-129781110D01*
X139514836Y-129923000D01*
X136398000Y-129923000D01*
X136107160Y-129980852D01*
X136075600Y-130001940D01*
X135958833Y-130001838D01*
X135615057Y-130143883D01*
X135351808Y-130406673D01*
X135209162Y-130750201D01*
X135208838Y-131122167D01*
X135350883Y-131465943D01*
X135613673Y-131729192D01*
X135957201Y-131871838D01*
X136329167Y-131872162D01*
X136672943Y-131730117D01*
X136936192Y-131467327D01*
X136946294Y-131443000D01*
X139513258Y-131443000D01*
X139536838Y-131568317D01*
X139660929Y-131761159D01*
X139639559Y-131774910D01*
X139494569Y-131987110D01*
X139443560Y-132239000D01*
X139443560Y-133739000D01*
X139487838Y-133974317D01*
X139626910Y-134190441D01*
X139839110Y-134335431D01*
X140091000Y-134386440D01*
X141312638Y-134386440D01*
X141697519Y-134771321D01*
X141944081Y-134936068D01*
X142234920Y-134993920D01*
X142466560Y-134993920D01*
X142466560Y-136339000D01*
X142476000Y-136389169D01*
X142476000Y-136778442D01*
X142250683Y-136820838D01*
X142034559Y-136959910D01*
X141889569Y-137172110D01*
X141838560Y-137424000D01*
X141838560Y-138674000D01*
X141882838Y-138909317D01*
X142021910Y-139125441D01*
X142231530Y-139268668D01*
X142179198Y-139321000D01*
X133236802Y-139321000D01*
X133010905Y-139095103D01*
X133011206Y-138750323D01*
X132831180Y-138314628D01*
X132586000Y-138069020D01*
X132586000Y-134900708D01*
X132830009Y-134657125D01*
X133010794Y-134221745D01*
X133011206Y-133750323D01*
X132831180Y-133314628D01*
X132498125Y-132980991D01*
X132062745Y-132800206D01*
X131591323Y-132799794D01*
X131155628Y-132979820D01*
X130821991Y-133312875D01*
X130742856Y-133503454D01*
X128453750Y-131214348D01*
X128667317Y-131174162D01*
X128883441Y-131035090D01*
X129028431Y-130822890D01*
X129031081Y-130809803D01*
X129167910Y-131022441D01*
X129380110Y-131167431D01*
X129632000Y-131218440D01*
X131132000Y-131218440D01*
X131367317Y-131174162D01*
X131583441Y-131035090D01*
X131728431Y-130822890D01*
X131779440Y-130571000D01*
X131779440Y-129598362D01*
X133379401Y-127998401D01*
X133544148Y-127751840D01*
X133602000Y-127461000D01*
X133602000Y-123293723D01*
X133840573Y-123650774D01*
M02*
